<mxfile host="drawio-plugin" modified="2022-02-24T15:32:39.963Z" agent="5.0 (Windows NT 6.2; Win64; x64) AppleWebKit/537.36 (KHTML, like Gecko) Chrome/89.0.4389.114 Safari/537.36" etag="eUN5A8cGucfv3gaaozlv" version="15.5.4" type="embed" pages="5"><diagram id="HKtWIeOJLuQA28WXwfet" name="Context"><mxGraphModel dx="2483" dy="1132" grid="1" gridSize="10" guides="1" tooltips="1" connect="1" arrows="1" fold="1" page="1" pageScale="1" pageWidth="850" pageHeight="1100" math="0" shadow="0"><root><mxCell id="BVAClryh2c49XUHUa5aW-0"/><mxCell id="BVAClryh2c49XUHUa5aW-1" parent="BVAClryh2c49XUHUa5aW-0"/><object placeholders="1" c4Name="Explorer" c4Type="Software System" c4Description="Description of software system." label="&lt;font style=&quot;font-size: 16px&quot;&gt;&lt;b&gt;%c4Name%&lt;/b&gt;&lt;/font&gt;&lt;div&gt;[%c4Type%]&lt;/div&gt;&lt;br&gt;&lt;div&gt;&lt;font style=&quot;font-size: 11px&quot;&gt;&lt;font color=&quot;#cccccc&quot;&gt;%c4Description%&lt;/font&gt;&lt;/div&gt;" id="BVAClryh2c49XUHUa5aW-2"><mxCell style="rounded=1;whiteSpace=wrap;html=1;labelBackgroundColor=none;fillColor=#1061B0;fontColor=#ffffff;align=center;arcSize=10;strokeColor=#0D5091;metaEdit=1;metaData={&quot;c4Type&quot;:{&quot;editable&quot;:false}};resizable=0;points=[[0.25,0,0],[0.5,0,0],[0.75,0,0],[1,0.25,0],[1,0.5,0],[1,0.75,0],[0.75,1,0],[0.5,1,0],[0.25,1,0],[0,0.75,0],[0,0.5,0],[0,0.25,0]];" parent="BVAClryh2c49XUHUa5aW-1" vertex="1"><mxGeometry x="200" y="450" width="240" height="120" as="geometry"/></mxCell></object><object placeholders="1" c4Name="WikiData" c4Type="Software System" c4Description="Principle linked data repository" label="&lt;font style=&quot;font-size: 16px&quot;&gt;&lt;b&gt;%c4Name%&lt;/b&gt;&lt;/font&gt;&lt;div&gt;[%c4Type%]&lt;/div&gt;&lt;br&gt;&lt;div&gt;&lt;font style=&quot;font-size: 11px&quot;&gt;&lt;font color=&quot;#cccccc&quot;&gt;%c4Description%&lt;/font&gt;&lt;/div&gt;" id="BVAClryh2c49XUHUa5aW-3"><mxCell style="rounded=1;whiteSpace=wrap;html=1;labelBackgroundColor=none;fillColor=#8C8496;fontColor=#ffffff;align=center;arcSize=10;strokeColor=#736782;metaEdit=1;metaData={&quot;c4Type&quot;:{&quot;editable&quot;:false}};resizable=0;points=[[0.25,0,0],[0.5,0,0],[0.75,0,0],[1,0.25,0],[1,0.5,0],[1,0.75,0],[0.75,1,0],[0.5,1,0],[0.25,1,0],[0,0.75,0],[0,0.5,0],[0,0.25,0]];" parent="BVAClryh2c49XUHUa5aW-1" vertex="1"><mxGeometry x="40" y="700" width="240" height="120" as="geometry"/></mxCell></object><object placeholders="1" c4Name="OpenStreetMaps" c4Type="Software System" c4Description="Principal source of geosparial information. Used for map rendering and retrieval of additional entity information not avaliable on WikiData" label="&lt;font style=&quot;font-size: 16px&quot;&gt;&lt;b&gt;%c4Name%&lt;/b&gt;&lt;/font&gt;&lt;div&gt;[%c4Type%]&lt;/div&gt;&lt;br&gt;&lt;div&gt;&lt;font style=&quot;font-size: 11px&quot;&gt;&lt;font color=&quot;#cccccc&quot;&gt;%c4Description%&lt;/font&gt;&lt;/div&gt;" id="BVAClryh2c49XUHUa5aW-4"><mxCell style="rounded=1;whiteSpace=wrap;html=1;labelBackgroundColor=none;fillColor=#8C8496;fontColor=#ffffff;align=center;arcSize=10;strokeColor=#736782;metaEdit=1;metaData={&quot;c4Type&quot;:{&quot;editable&quot;:false}};resizable=0;points=[[0.25,0,0],[0.5,0,0],[0.75,0,0],[1,0.25,0],[1,0.5,0],[1,0.75,0],[0.75,1,0],[0.5,1,0],[0.25,1,0],[0,0.75,0],[0,0.5,0],[0,0.25,0]];" parent="BVAClryh2c49XUHUa5aW-1" vertex="1"><mxGeometry x="570" y="700" width="240" height="120" as="geometry"/></mxCell></object><object placeholders="1" c4Name="Wikipedia" c4Type="Software System" c4Description="Secondary source of human readable information with strong links/integration with WikiData" label="&lt;font style=&quot;font-size: 16px&quot;&gt;&lt;b&gt;%c4Name%&lt;/b&gt;&lt;/font&gt;&lt;div&gt;[%c4Type%]&lt;/div&gt;&lt;br&gt;&lt;div&gt;&lt;font style=&quot;font-size: 11px&quot;&gt;&lt;font color=&quot;#cccccc&quot;&gt;%c4Description%&lt;/font&gt;&lt;/div&gt;" id="BVAClryh2c49XUHUa5aW-5"><mxCell style="rounded=1;whiteSpace=wrap;html=1;labelBackgroundColor=none;fillColor=#8C8496;fontColor=#ffffff;align=center;arcSize=10;strokeColor=#736782;metaEdit=1;metaData={&quot;c4Type&quot;:{&quot;editable&quot;:false}};resizable=0;points=[[0.25,0,0],[0.5,0,0],[0.75,0,0],[1,0.25,0],[1,0.5,0],[1,0.75,0],[0.75,1,0],[0.5,1,0],[0.25,1,0],[0,0.75,0],[0,0.5,0],[0,0.25,0]];" parent="BVAClryh2c49XUHUa5aW-1" vertex="1"><mxGeometry x="305" y="700" width="240" height="120" as="geometry"/></mxCell></object><object placeholders="1" c4Name="Application User" c4Type="Person" c4Description="The user of a mobile device &#10;or web browser." label="&lt;font style=&quot;font-size: 16px&quot;&gt;&lt;b&gt;%c4Name%&lt;/b&gt;&lt;/font&gt;&lt;div&gt;[%c4Type%]&lt;/div&gt;&lt;br&gt;&lt;div&gt;&lt;font style=&quot;font-size: 11px&quot;&gt;&lt;font color=&quot;#cccccc&quot;&gt;%c4Description%&lt;/font&gt;&lt;/div&gt;" id="BVAClryh2c49XUHUa5aW-6"><mxCell style="html=1;fontSize=11;dashed=0;whitespace=wrap;fillColor=#083F75;strokeColor=#06315C;fontColor=#ffffff;shape=mxgraph.c4.person2;align=center;metaEdit=1;points=[[0.5,0,0],[1,0.5,0],[1,0.75,0],[0.75,1,0],[0.5,1,0],[0.25,1,0],[0,0.75,0],[0,0.5,0]];metaData={&quot;c4Type&quot;:{&quot;editable&quot;:false}};resizable=0;" parent="BVAClryh2c49XUHUa5aW-1" vertex="1"><mxGeometry x="220" y="170" width="200" height="180" as="geometry"/></mxCell></object><object placeholders="1" c4Type="Relationship" c4Description="Visits app" label="&lt;div style=&quot;text-align: left&quot;&gt;&lt;div style=&quot;text-align: center&quot;&gt;&lt;b&gt;%c4Description%&lt;/b&gt;&lt;/div&gt;&lt;/div&gt;" id="BVAClryh2c49XUHUa5aW-7"><mxCell style="endArrow=blockThin;html=1;fontSize=10;fontColor=#404040;strokeWidth=1;endFill=1;strokeColor=#828282;elbow=vertical;metaEdit=1;endSize=14;startSize=14;jumpStyle=arc;jumpSize=16;rounded=0;edgeStyle=orthogonalEdgeStyle;exitX=0.5;exitY=1;exitDx=0;exitDy=0;exitPerimeter=0;entryX=0.5;entryY=0;entryDx=0;entryDy=0;entryPerimeter=0;labelBackgroundColor=#FFFFFF;" parent="BVAClryh2c49XUHUa5aW-1" source="BVAClryh2c49XUHUa5aW-6" target="BVAClryh2c49XUHUa5aW-2" edge="1"><mxGeometry width="240" relative="1" as="geometry"><mxPoint x="70" y="520" as="sourcePoint"/><mxPoint x="310" y="520" as="targetPoint"/></mxGeometry></mxCell></object><object placeholders="1" c4Type="Relationship" c4Description="Gets information on entities&#10;within users area." label="&lt;div style=&quot;text-align: left&quot;&gt;&lt;div style=&quot;text-align: center&quot;&gt;&lt;b&gt;%c4Description%&lt;/b&gt;&lt;/div&gt;&lt;/div&gt;" id="BVAClryh2c49XUHUa5aW-9"><mxCell style="endArrow=blockThin;html=1;fontSize=10;fontColor=#404040;strokeWidth=1;endFill=1;strokeColor=#828282;elbow=vertical;metaEdit=1;endSize=14;startSize=14;jumpStyle=arc;jumpSize=16;rounded=0;edgeStyle=orthogonalEdgeStyle;exitX=0.25;exitY=1;exitDx=0;exitDy=0;exitPerimeter=0;entryX=0.5;entryY=0;entryDx=0;entryDy=0;entryPerimeter=0;labelBackgroundColor=#FFFFFF;" parent="BVAClryh2c49XUHUa5aW-1" source="BVAClryh2c49XUHUa5aW-2" target="BVAClryh2c49XUHUa5aW-3" edge="1"><mxGeometry width="240" relative="1" as="geometry"><mxPoint x="159.66000000000003" y="580" as="sourcePoint"/><mxPoint x="159.66000000000003" y="680" as="targetPoint"/></mxGeometry></mxCell></object><object placeholders="1" c4Type="Relationship" c4Description="Gets detailed human &#10;readable extracts" label="&lt;div style=&quot;text-align: left&quot;&gt;&lt;div style=&quot;text-align: center&quot;&gt;&lt;b&gt;%c4Description%&lt;/b&gt;&lt;/div&gt;&lt;/div&gt;" id="BVAClryh2c49XUHUa5aW-10"><mxCell style="endArrow=blockThin;html=1;fontSize=10;fontColor=#404040;strokeWidth=1;endFill=1;strokeColor=#828282;elbow=vertical;metaEdit=1;endSize=14;startSize=14;jumpStyle=arc;jumpSize=16;rounded=0;edgeStyle=orthogonalEdgeStyle;exitX=0.5;exitY=1;exitDx=0;exitDy=0;exitPerimeter=0;entryX=0.5;entryY=0;entryDx=0;entryDy=0;entryPerimeter=0;labelBackgroundColor=#FFFFFF;" parent="BVAClryh2c49XUHUa5aW-1" source="BVAClryh2c49XUHUa5aW-2" target="BVAClryh2c49XUHUa5aW-5" edge="1"><mxGeometry width="240" relative="1" as="geometry"><mxPoint x="424" y="590" as="sourcePoint"/><mxPoint x="424" y="690" as="targetPoint"/></mxGeometry></mxCell></object><object placeholders="1" c4Type="Relationship" c4Description="Gets geospatial information &#10;on requested area" label="&lt;div style=&quot;text-align: left&quot;&gt;&lt;div style=&quot;text-align: center&quot;&gt;&lt;b&gt;%c4Description%&lt;/b&gt;&lt;/div&gt;&lt;/div&gt;" id="BVAClryh2c49XUHUa5aW-14"><mxCell style="endArrow=blockThin;html=1;fontSize=10;fontColor=#404040;strokeWidth=1;endFill=1;strokeColor=#828282;elbow=vertical;metaEdit=1;endSize=14;startSize=14;jumpStyle=arc;jumpSize=16;rounded=0;edgeStyle=orthogonalEdgeStyle;exitX=0.75;exitY=1;exitDx=0;exitDy=0;exitPerimeter=0;entryX=0.5;entryY=0;entryDx=0;entryDy=0;entryPerimeter=0;labelBackgroundColor=#FFFFFF;" parent="BVAClryh2c49XUHUa5aW-1" source="BVAClryh2c49XUHUa5aW-2" target="BVAClryh2c49XUHUa5aW-4" edge="1"><mxGeometry width="240" relative="1" as="geometry"><mxPoint x="690" y="570" as="sourcePoint"/><mxPoint x="560" y="720" as="targetPoint"/><Array as="points"><mxPoint x="380" y="610"/><mxPoint x="690" y="610"/></Array></mxGeometry></mxCell></object></root></mxGraphModel></diagram><diagram id="R_WD3xZJsw1P7vBUr3kJ" name="Container"><mxGraphModel dx="4137" dy="1132" grid="1" gridSize="10" guides="1" tooltips="1" connect="1" arrows="1" fold="1" page="1" pageScale="1" pageWidth="1654" pageHeight="1169" math="0" shadow="0"><root><mxCell id="ZqhM-cbXaa5Ux5yi89ad-0"/><mxCell id="ZqhM-cbXaa5Ux5yi89ad-1" parent="ZqhM-cbXaa5Ux5yi89ad-0"/><object placeholders="1" c4Name="[Containers] Explorer" c4Type="ContainerDiagramTitle" c4Description="Container Diagram for Explorer systems" label="&lt;font style=&quot;font-size: 16px&quot;&gt;&lt;b&gt;&lt;div style=&quot;text-align: left&quot;&gt;%c4Name%&lt;/div&gt;&lt;/b&gt;&lt;/font&gt;&lt;div style=&quot;text-align: left&quot;&gt;%c4Description%&lt;/div&gt;" id="ZqhM-cbXaa5Ux5yi89ad-4"><mxCell style="text;html=1;strokeColor=none;fillColor=none;align=left;verticalAlign=top;whiteSpace=wrap;rounded=0;metaEdit=1;allowArrows=0;resizable=1;rotatable=0;connectable=0;recursiveResize=0;expand=0;pointerEvents=0;points=[[0.25,0,0],[0.5,0,0],[0.75,0,0],[1,0.25,0],[1,0.5,0],[1,0.75,0],[0.75,1,0],[0.5,1,0],[0.25,1,0],[0,0.75,0],[0,0.5,0],[0,0.25,0]];sketch=0;fontFamily=Helvetica;fontSize=10;fontColor=#404040;labelBackgroundColor=#FFFFFF;" parent="ZqhM-cbXaa5Ux5yi89ad-1" vertex="1"><mxGeometry x="-1600" y="1080" width="260" height="40" as="geometry"/></mxCell></object><object placeholders="1" c4Name="Explorer Application" c4Type="SystemScopeBoundary" c4Application="Software System" label="&lt;font style=&quot;font-size: 16px&quot;&gt;&lt;b&gt;&lt;div style=&quot;text-align: left&quot;&gt;%c4Name%&lt;/div&gt;&lt;/b&gt;&lt;/font&gt;&lt;div style=&quot;text-align: left&quot;&gt;[%c4Application%]&lt;/div&gt;" id="cUMiHZgGR0d7GYJrSWkB-2"><mxCell style="rounded=1;fontSize=11;whiteSpace=wrap;html=1;dashed=1;arcSize=20;fillColor=none;strokeColor=#666666;fontColor=#333333;labelBackgroundColor=#FFFFFF;align=left;verticalAlign=bottom;labelBorderColor=none;spacingTop=0;spacing=10;dashPattern=8 4;metaEdit=1;rotatable=0;perimeter=rectanglePerimeter;noLabel=0;labelPadding=0;allowArrows=0;connectable=0;expand=0;recursiveResize=0;editable=1;pointerEvents=0;absoluteArcSize=1;points=[[0.25,0,0],[0.5,0,0],[0.75,0,0],[1,0.25,0],[1,0.5,0],[1,0.75,0],[0.75,1,0],[0.5,1,0],[0.25,1,0],[0,0.75,0],[0,0.5,0],[0,0.25,0]];sketch=0;fontFamily=Helvetica;" parent="ZqhM-cbXaa5Ux5yi89ad-1" vertex="1"><mxGeometry x="-1600" y="260" width="1250" height="540" as="geometry"/></mxCell></object><object placeholders="1" c4Name="User" c4Type="Person" c4Description="A customer with regular user account" label="&lt;font style=&quot;font-size: 16px&quot;&gt;&lt;b&gt;%c4Name%&lt;/b&gt;&lt;/font&gt;&lt;div&gt;[%c4Type%]&lt;/div&gt;&lt;br&gt;&lt;div&gt;&lt;font style=&quot;font-size: 11px&quot;&gt;&lt;font color=&quot;#cccccc&quot;&gt;%c4Description%&lt;/font&gt;&lt;/div&gt;" id="6JRwBSl0jRruoIL_U0oF-0"><mxCell style="html=1;fontSize=11;dashed=0;whitespace=wrap;fillColor=#083F75;strokeColor=#06315C;fontColor=#ffffff;shape=mxgraph.c4.person2;align=center;metaEdit=1;points=[[0.5,0,0],[1,0.5,0],[1,0.75,0],[0.75,1,0],[0.5,1,0],[0.25,1,0],[0,0.75,0],[0,0.5,0]];resizable=0;labelBackgroundColor=none;labelBorderColor=none;comic=0;" parent="ZqhM-cbXaa5Ux5yi89ad-1" vertex="1"><mxGeometry x="-1420" y="10" width="200" height="180" as="geometry"/></mxCell></object><object placeholders="1" c4Type="Relationship" c4Description="Explores map and surroundings,&#10;finds and saves POIs,&#10;Browses information about POIs using" label="&lt;div style=&quot;text-align: left&quot;&gt;&lt;div style=&quot;text-align: center&quot;&gt;&lt;b&gt;%c4Description%&lt;/b&gt;&lt;/div&gt;&lt;/div&gt;" id="6JRwBSl0jRruoIL_U0oF-5"><mxCell style="endArrow=blockThin;html=1;fontSize=10;fontColor=#404040;strokeWidth=1;endFill=1;strokeColor=#828282;elbow=vertical;metaEdit=1;endSize=14;startSize=14;jumpStyle=arc;jumpSize=16;rounded=0;edgeStyle=orthogonalEdgeStyle;exitX=0.5;exitY=1;exitDx=0;exitDy=0;exitPerimeter=0;labelBackgroundColor=#FFFFFF;entryX=0.5;entryY=0;entryDx=0;entryDy=0;entryPerimeter=0;" parent="ZqhM-cbXaa5Ux5yi89ad-1" source="6JRwBSl0jRruoIL_U0oF-0" target="6JRwBSl0jRruoIL_U0oF-14" edge="1"><mxGeometry x="-0.3208" y="-10" width="240" relative="1" as="geometry"><mxPoint x="-450" y="750" as="sourcePoint"/><mxPoint x="-1460" y="315" as="targetPoint"/><Array as="points"><mxPoint x="-1320" y="300"/><mxPoint x="-1320" y="300"/></Array><mxPoint as="offset"/></mxGeometry></mxCell></object><mxCell id="T8Oeap7GOdOtiYhdoOZ--3" value="Gets information&lt;br&gt;[SPARQL/RDF]" style="edgeStyle=orthogonalEdgeStyle;rounded=0;orthogonalLoop=1;jettySize=auto;html=1;exitX=0.5;exitY=1;exitDx=0;exitDy=0;exitPerimeter=0;entryX=0.749;entryY=-0.022;entryDx=0;entryDy=0;entryPerimeter=0;labelBackgroundColor=default;" parent="ZqhM-cbXaa5Ux5yi89ad-1" source="6JRwBSl0jRruoIL_U0oF-14" target="T8Oeap7GOdOtiYhdoOZ--0" edge="1"><mxGeometry x="0.7194" relative="1" as="geometry"><Array as="points"><mxPoint x="-1320" y="720"/><mxPoint x="-1320" y="720"/></Array><mxPoint as="offset"/></mxGeometry></mxCell><mxCell id="T8Oeap7GOdOtiYhdoOZ--4" value="Gets human radable information&lt;br&gt;[REST/JSON]" style="edgeStyle=orthogonalEdgeStyle;rounded=0;orthogonalLoop=1;jettySize=auto;html=1;exitX=0.5;exitY=1;exitDx=0;exitDy=0;exitPerimeter=0;labelBackgroundColor=default;entryX=0.5;entryY=0;entryDx=0;entryDy=0;entryPerimeter=0;" parent="ZqhM-cbXaa5Ux5yi89ad-1" source="6JRwBSl0jRruoIL_U0oF-14" target="T8Oeap7GOdOtiYhdoOZ--2" edge="1"><mxGeometry x="0.8318" relative="1" as="geometry"><Array as="points"><mxPoint x="-1320" y="820"/><mxPoint x="-1030" y="820"/></Array><mxPoint as="offset"/></mxGeometry></mxCell><mxCell id="T8Oeap7GOdOtiYhdoOZ--5" value="Authenticates requests with&lt;br&gt;[REST/JSON/Oauth 2.0]" style="edgeStyle=orthogonalEdgeStyle;rounded=0;orthogonalLoop=1;jettySize=auto;html=1;exitX=1;exitY=0.25;exitDx=0;exitDy=0;exitPerimeter=0;entryX=0;entryY=0.5;entryDx=0;entryDy=0;entryPerimeter=0;labelBackgroundColor=default;" parent="ZqhM-cbXaa5Ux5yi89ad-1" source="6JRwBSl0jRruoIL_U0oF-14" target="QHlh6rhRUlBkvkKrcH_v-3" edge="1"><mxGeometry relative="1" as="geometry"/></mxCell><mxCell id="T8Oeap7GOdOtiYhdoOZ--6" value="Get map tiles from&lt;br&gt;[REST]" style="edgeStyle=orthogonalEdgeStyle;rounded=0;orthogonalLoop=1;jettySize=auto;html=1;exitX=1;exitY=0.5;exitDx=0;exitDy=0;exitPerimeter=0;entryX=0;entryY=0.5;entryDx=0;entryDy=0;entryPerimeter=0;labelBackgroundColor=default;" parent="ZqhM-cbXaa5Ux5yi89ad-1" source="6JRwBSl0jRruoIL_U0oF-14" target="U3DXtIzmuwqzwg34h1mf-3" edge="1"><mxGeometry x="-0.2308" relative="1" as="geometry"><Array as="points"><mxPoint x="-690" y="410"/><mxPoint x="-690" y="490"/></Array><mxPoint as="offset"/></mxGeometry></mxCell><mxCell id="T8Oeap7GOdOtiYhdoOZ--11" style="edgeStyle=orthogonalEdgeStyle;rounded=0;orthogonalLoop=1;jettySize=auto;html=1;exitX=0.5;exitY=1;exitDx=0;exitDy=0;exitPerimeter=0;entryX=0.25;entryY=0;entryDx=0;entryDy=0;entryPerimeter=0;labelBackgroundColor=default;jumpStyle=gap;" parent="ZqhM-cbXaa5Ux5yi89ad-1" source="6JRwBSl0jRruoIL_U0oF-14" target="T8Oeap7GOdOtiYhdoOZ--1" edge="1"><mxGeometry relative="1" as="geometry"><Array as="points"><mxPoint x="-1320" y="820"/><mxPoint x="-830" y="820"/></Array></mxGeometry></mxCell><mxCell id="T8Oeap7GOdOtiYhdoOZ--12" value="Gets reccomendations from" style="edgeStyle=orthogonalEdgeStyle;rounded=0;orthogonalLoop=1;jettySize=auto;html=1;exitX=0;exitY=0.75;exitDx=0;exitDy=0;exitPerimeter=0;labelBackgroundColor=default;" parent="ZqhM-cbXaa5Ux5yi89ad-1" source="6JRwBSl0jRruoIL_U0oF-14" target="aUII8fz43r3BR8i_wApk-0" edge="1"><mxGeometry x="0.3847" relative="1" as="geometry"><mxPoint as="offset"/></mxGeometry></mxCell><mxCell id="T8Oeap7GOdOtiYhdoOZ--13" style="edgeStyle=orthogonalEdgeStyle;rounded=0;orthogonalLoop=1;jettySize=auto;html=1;exitX=1;exitY=0.75;exitDx=0;exitDy=0;exitPerimeter=0;labelBackgroundColor=default;entryX=0.25;entryY=0;entryDx=0;entryDy=0;entryPerimeter=0;" parent="ZqhM-cbXaa5Ux5yi89ad-1" source="6JRwBSl0jRruoIL_U0oF-14" target="U3DXtIzmuwqzwg34h1mf-2" edge="1"><mxGeometry relative="1" as="geometry"/></mxCell><mxCell id="T8Oeap7GOdOtiYhdoOZ--14" value="Persists user information with" style="edgeLabel;html=1;align=center;verticalAlign=middle;resizable=0;points=[];" parent="T8Oeap7GOdOtiYhdoOZ--13" vertex="1" connectable="0"><mxGeometry x="-0.4838" y="1" relative="1" as="geometry"><mxPoint x="104" y="1" as="offset"/></mxGeometry></mxCell><object placeholders="1" c4Type="Explorer-App" c4Container="Container" c4Technology="TypeScript + VueJS&#10; + Ionic + Capacitor" c4Description="Users main interaction point with service." label="&lt;font style=&quot;font-size: 16px&quot;&gt;&lt;b&gt;%c4Type%&lt;/font&gt;&lt;div&gt;[%c4Container%:&amp;nbsp;%c4Technology%]&lt;/div&gt;&lt;br&gt;&lt;div&gt;&lt;font style=&quot;font-size: 11px&quot;&gt;&lt;font color=&quot;#E6E6E6&quot;&gt;%c4Description%&lt;/font&gt;&lt;/div&gt;" id="6JRwBSl0jRruoIL_U0oF-14"><mxCell style="shape=mxgraph.c4.webBrowserContainer;whiteSpace=wrap;html=1;boundedLbl=1;rounded=0;labelBackgroundColor=none;fillColor=#118ACD;fontSize=12;fontColor=#ffffff;align=center;strokeColor=#0E7DAD;metaEdit=1;points=[[0.5,0,0],[1,0.25,0],[1,0.5,0],[1,0.75,0],[0.5,1,0],[0,0.75,0],[0,0.5,0],[0,0.25,0]];resizable=0;sketch=0;fontFamily=Helvetica;" parent="ZqhM-cbXaa5Ux5yi89ad-1" vertex="1"><mxGeometry x="-1440" y="330" width="240" height="160" as="geometry"/></mxCell></object><mxCell id="T8Oeap7GOdOtiYhdoOZ--16" value="Authenticates with" style="edgeStyle=orthogonalEdgeStyle;rounded=0;orthogonalLoop=1;jettySize=auto;html=1;exitX=0.75;exitY=0;exitDx=0;exitDy=0;exitPerimeter=0;entryX=0;entryY=0.75;entryDx=0;entryDy=0;entryPerimeter=0;labelBackgroundColor=default;sketch=0;jumpStyle=gap;" parent="ZqhM-cbXaa5Ux5yi89ad-1" source="U3DXtIzmuwqzwg34h1mf-2" target="QHlh6rhRUlBkvkKrcH_v-3" edge="1"><mxGeometry x="-0.5554" relative="1" as="geometry"><mxPoint as="offset"/></mxGeometry></mxCell><object placeholders="1" c4Name="Explorer-User" c4Type="Container" c4Technology="SpringBoot" c4Description="Manages user account operations and storage" label="&lt;font style=&quot;font-size: 16px&quot;&gt;&lt;b&gt;%c4Name%&lt;/b&gt;&lt;/font&gt;&lt;div&gt;[%c4Type%: %c4Technology%]&lt;/div&gt;&lt;br&gt;&lt;div&gt;&lt;font style=&quot;font-size: 11px&quot;&gt;&lt;font color=&quot;#E6E6E6&quot;&gt;%c4Description%&lt;/font&gt;&lt;/div&gt;" id="U3DXtIzmuwqzwg34h1mf-2"><mxCell style="rounded=1;whiteSpace=wrap;html=1;fontSize=11;labelBackgroundColor=none;fillColor=#23A2D9;fontColor=#ffffff;align=center;arcSize=10;strokeColor=#0E7DAD;metaEdit=1;resizable=0;points=[[0.25,0,0],[0.5,0,0],[0.75,0,0],[1,0.25,0],[1,0.5,0],[1,0.75,0],[0.75,1,0],[0.5,1,0],[0.25,1,0],[0,0.75,0],[0,0.5,0],[0,0.25,0]];sketch=0;fontFamily=Helvetica;" parent="ZqhM-cbXaa5Ux5yi89ad-1" vertex="1"><mxGeometry x="-970" y="560" width="240" height="120" as="geometry"/></mxCell></object><mxCell id="T8Oeap7GOdOtiYhdoOZ--7" value="Gets raw data dumps from" style="edgeStyle=orthogonalEdgeStyle;rounded=0;orthogonalLoop=1;jettySize=auto;html=1;exitX=0.5;exitY=1;exitDx=0;exitDy=0;exitPerimeter=0;labelBackgroundColor=default;entryX=0.75;entryY=0;entryDx=0;entryDy=0;entryPerimeter=0;" parent="ZqhM-cbXaa5Ux5yi89ad-1" source="T8Oeap7GOdOtiYhdoOZ--19" target="T8Oeap7GOdOtiYhdoOZ--1" edge="1"><mxGeometry relative="1" as="geometry"><Array as="points"><mxPoint x="-490" y="860"/><mxPoint x="-710" y="860"/></Array></mxGeometry></mxCell><mxCell id="T8Oeap7GOdOtiYhdoOZ--20" value="Get map data from" style="edgeStyle=orthogonalEdgeStyle;rounded=0;sketch=0;jumpStyle=gap;orthogonalLoop=1;jettySize=auto;html=1;exitX=0.75;exitY=1;exitDx=0;exitDy=0;exitPerimeter=0;labelBackgroundColor=default;" parent="ZqhM-cbXaa5Ux5yi89ad-1" source="U3DXtIzmuwqzwg34h1mf-3" target="T8Oeap7GOdOtiYhdoOZ--19" edge="1"><mxGeometry relative="1" as="geometry"><Array as="points"><mxPoint x="-450" y="630"/><mxPoint x="-450" y="630"/></Array></mxGeometry></mxCell><object placeholders="1" c4Name="TileServer-GL" c4Type="Container" c4Technology="Docker" c4Description="Serves vector tiles using a tileset produced offline from OpenStreetMaps" label="&lt;font style=&quot;font-size: 16px&quot;&gt;&lt;b&gt;%c4Name%&lt;/b&gt;&lt;/font&gt;&lt;div&gt;[%c4Type%: %c4Technology%]&lt;/div&gt;&lt;br&gt;&lt;div&gt;&lt;font style=&quot;font-size: 11px&quot;&gt;&lt;font color=&quot;#E6E6E6&quot;&gt;%c4Description%&lt;/font&gt;&lt;/div&gt;" id="U3DXtIzmuwqzwg34h1mf-3"><mxCell style="rounded=1;whiteSpace=wrap;html=1;fontSize=11;labelBackgroundColor=none;fillColor=#23A2D9;fontColor=#ffffff;align=center;arcSize=10;strokeColor=#0E7DAD;metaEdit=1;resizable=0;points=[[0.25,0,0],[0.5,0,0],[0.75,0,0],[1,0.25,0],[1,0.5,0],[1,0.75,0],[0.75,1,0],[0.5,1,0],[0.25,1,0],[0,0.75,0],[0,0.5,0],[0,0.25,0]];sketch=0;fontFamily=Helvetica;" parent="ZqhM-cbXaa5Ux5yi89ad-1" vertex="1"><mxGeometry x="-630" y="430" width="240" height="120" as="geometry"/></mxCell></object><mxCell id="T8Oeap7GOdOtiYhdoOZ--22" value="Gets RDF data dumps from" style="edgeStyle=orthogonalEdgeStyle;rounded=0;sketch=0;jumpStyle=gap;orthogonalLoop=1;jettySize=auto;html=1;exitX=0.5;exitY=1;exitDx=0;exitDy=0;exitPerimeter=0;entryX=0.5;entryY=0;entryDx=0;entryDy=0;entryPerimeter=0;labelBackgroundColor=default;" parent="ZqhM-cbXaa5Ux5yi89ad-1" source="aUII8fz43r3BR8i_wApk-0" target="T8Oeap7GOdOtiYhdoOZ--0" edge="1"><mxGeometry x="-0.4545" relative="1" as="geometry"><Array as="points"><mxPoint x="-1470" y="730"/><mxPoint x="-1380" y="730"/></Array><mxPoint as="offset"/></mxGeometry></mxCell><object placeholders="1" c4Name="Explorer-Recommend" c4Type="Container" c4Technology="SpringBoot" c4Description="Provides reccomendations for other entities based on an input" label="&lt;font style=&quot;font-size: 16px&quot;&gt;&lt;b&gt;%c4Name%&lt;/b&gt;&lt;/font&gt;&lt;div&gt;[%c4Type%: %c4Technology%]&lt;/div&gt;&lt;br&gt;&lt;div&gt;&lt;font style=&quot;font-size: 11px&quot;&gt;&lt;font color=&quot;#E6E6E6&quot;&gt;%c4Description%&lt;/font&gt;&lt;/div&gt;" id="aUII8fz43r3BR8i_wApk-0"><mxCell style="rounded=1;whiteSpace=wrap;html=1;fontSize=11;labelBackgroundColor=none;fillColor=#23A2D9;fontColor=#ffffff;align=center;arcSize=10;strokeColor=#0E7DAD;metaEdit=1;resizable=0;points=[[0.25,0,0],[0.5,0,0],[0.75,0,0],[1,0.25,0],[1,0.5,0],[1,0.75,0],[0.75,1,0],[0.5,1,0],[0.25,1,0],[0,0.75,0],[0,0.5,0],[0,0.25,0]];sketch=0;fontFamily=Helvetica;" parent="ZqhM-cbXaa5Ux5yi89ad-1" vertex="1"><mxGeometry x="-1590" y="560" width="240" height="120" as="geometry"/></mxCell></object><object placeholders="1" c4Name="Keycloak" c4Type="Container" c4Technology="Docker" c4Description="Primary user authentication provider" label="&lt;font style=&quot;font-size: 16px&quot;&gt;&lt;b&gt;%c4Name%&lt;/b&gt;&lt;/font&gt;&lt;div&gt;[%c4Type%: %c4Technology%]&lt;/div&gt;&lt;br&gt;&lt;div&gt;&lt;font style=&quot;font-size: 11px&quot;&gt;&lt;font color=&quot;#E6E6E6&quot;&gt;%c4Description%&lt;/font&gt;&lt;/div&gt;" id="QHlh6rhRUlBkvkKrcH_v-3"><mxCell style="rounded=1;whiteSpace=wrap;html=1;fontSize=11;labelBackgroundColor=none;fillColor=#23A2D9;fontColor=#ffffff;align=center;arcSize=10;strokeColor=#0E7DAD;metaEdit=1;resizable=0;points=[[0.25,0,0],[0.5,0,0],[0.75,0,0],[1,0.25,0],[1,0.5,0],[1,0.75,0],[0.75,1,0],[0.5,1,0],[0.25,1,0],[0,0.75,0],[0,0.5,0],[0,0.25,0]];sketch=0;fontFamily=Helvetica;" parent="ZqhM-cbXaa5Ux5yi89ad-1" vertex="1"><mxGeometry x="-630" y="290" width="240" height="120" as="geometry"/></mxCell></object><object placeholders="1" c4Name="Explorer-Services" c4Type="SystemScopeBoundary" c4Application="Software System" label="&lt;font style=&quot;font-size: 16px&quot;&gt;&lt;b&gt;&lt;div style=&quot;text-align: left&quot;&gt;%c4Name%&lt;/div&gt;&lt;/b&gt;&lt;/font&gt;&lt;div style=&quot;text-align: left&quot;&gt;[%c4Application%]&lt;/div&gt;" id="QHlh6rhRUlBkvkKrcH_v-4"><mxCell style="rounded=1;fontSize=11;whiteSpace=wrap;html=1;dashed=1;arcSize=20;fillColor=none;strokeColor=#666666;fontColor=#333333;labelBackgroundColor=#FFFFFF;align=left;verticalAlign=bottom;labelBorderColor=none;spacingTop=0;spacing=10;dashPattern=8 4;metaEdit=1;rotatable=0;perimeter=rectanglePerimeter;noLabel=0;labelPadding=0;allowArrows=0;connectable=0;expand=0;recursiveResize=0;editable=1;pointerEvents=0;absoluteArcSize=1;points=[[0.25,0,0],[0.5,0,0],[0.75,0,0],[1,0.25,0],[1,0.5,0],[1,0.75,0],[0.75,1,0],[0.5,1,0],[0.25,1,0],[0,0.75,0],[0,0.5,0],[0,0.25,0]];sketch=0;fontFamily=Helvetica;" parent="ZqhM-cbXaa5Ux5yi89ad-1" vertex="1"><mxGeometry x="-660" y="270" width="290" height="500" as="geometry"/></mxCell></object><object placeholders="1" c4Name="WikiData" c4Type="Software System" c4Description="Principle linked data repository" label="&lt;font style=&quot;font-size: 16px&quot;&gt;&lt;b&gt;%c4Name%&lt;/b&gt;&lt;/font&gt;&lt;div&gt;[%c4Type%]&lt;/div&gt;&lt;br&gt;&lt;div&gt;&lt;font style=&quot;font-size: 11px&quot;&gt;&lt;font color=&quot;#cccccc&quot;&gt;%c4Description%&lt;/font&gt;&lt;/div&gt;" id="T8Oeap7GOdOtiYhdoOZ--0"><mxCell style="rounded=1;whiteSpace=wrap;html=1;labelBackgroundColor=none;fillColor=#8C8496;fontColor=#ffffff;align=center;arcSize=10;strokeColor=#736782;metaEdit=1;metaData={&quot;c4Type&quot;:{&quot;editable&quot;:false}};resizable=0;points=[[0.25,0,0],[0.5,0,0],[0.75,0,0],[1,0.25,0],[1,0.5,0],[1,0.75,0],[0.75,1,0],[0.5,1,0],[0.25,1,0],[0,0.75,0],[0,0.5,0],[0,0.25,0]];" parent="ZqhM-cbXaa5Ux5yi89ad-1" vertex="1"><mxGeometry x="-1500" y="920" width="240" height="120" as="geometry"/></mxCell></object><object placeholders="1" c4Name="OpenStreetMaps" c4Type="Software System" c4Description="Principal source of geosparial information. Used for map rendering and retrieval of additional entity information not avaliable on WikiData" label="&lt;font style=&quot;font-size: 16px&quot;&gt;&lt;b&gt;%c4Name%&lt;/b&gt;&lt;/font&gt;&lt;div&gt;[%c4Type%]&lt;/div&gt;&lt;br&gt;&lt;div&gt;&lt;font style=&quot;font-size: 11px&quot;&gt;&lt;font color=&quot;#cccccc&quot;&gt;%c4Description%&lt;/font&gt;&lt;/div&gt;" id="T8Oeap7GOdOtiYhdoOZ--1"><mxCell style="rounded=1;whiteSpace=wrap;html=1;labelBackgroundColor=none;fillColor=#8C8496;fontColor=#ffffff;align=center;arcSize=10;strokeColor=#736782;metaEdit=1;metaData={&quot;c4Type&quot;:{&quot;editable&quot;:false}};resizable=0;points=[[0.25,0,0],[0.5,0,0],[0.75,0,0],[1,0.25,0],[1,0.5,0],[1,0.75,0],[0.75,1,0],[0.5,1,0],[0.25,1,0],[0,0.75,0],[0,0.5,0],[0,0.25,0]];" parent="ZqhM-cbXaa5Ux5yi89ad-1" vertex="1"><mxGeometry x="-810" y="920" width="240" height="120" as="geometry"/></mxCell></object><object placeholders="1" c4Name="Wikipedia" c4Type="Software System" c4Description="Secondary source of human readable information with strong links/integration with WikiData" label="&lt;font style=&quot;font-size: 16px&quot;&gt;&lt;b&gt;%c4Name%&lt;/b&gt;&lt;/font&gt;&lt;div&gt;[%c4Type%]&lt;/div&gt;&lt;br&gt;&lt;div&gt;&lt;font style=&quot;font-size: 11px&quot;&gt;&lt;font color=&quot;#cccccc&quot;&gt;%c4Description%&lt;/font&gt;&lt;/div&gt;" id="T8Oeap7GOdOtiYhdoOZ--2"><mxCell style="rounded=1;whiteSpace=wrap;html=1;labelBackgroundColor=none;fillColor=#8C8496;fontColor=#ffffff;align=center;arcSize=10;strokeColor=#736782;metaEdit=1;metaData={&quot;c4Type&quot;:{&quot;editable&quot;:false}};resizable=0;points=[[0.25,0,0],[0.5,0,0],[0.75,0,0],[1,0.25,0],[1,0.5,0],[1,0.75,0],[0.75,1,0],[0.5,1,0],[0.25,1,0],[0,0.75,0],[0,0.5,0],[0,0.25,0]];" parent="ZqhM-cbXaa5Ux5yi89ad-1" vertex="1"><mxGeometry x="-1150" y="920" width="240" height="120" as="geometry"/></mxCell></object><mxCell id="T8Oeap7GOdOtiYhdoOZ--18" style="edgeStyle=orthogonalEdgeStyle;rounded=0;sketch=0;jumpStyle=gap;orthogonalLoop=1;jettySize=auto;html=1;exitX=0.5;exitY=1;exitDx=0;exitDy=0;exitPerimeter=0;labelBackgroundColor=default;" parent="ZqhM-cbXaa5Ux5yi89ad-1" source="T8Oeap7GOdOtiYhdoOZ--17" target="QHlh6rhRUlBkvkKrcH_v-3" edge="1"><mxGeometry relative="1" as="geometry"/></mxCell><object placeholders="1" c4Name="Administrator" c4Type="Person" c4Description="" label="&lt;font style=&quot;font-size: 16px&quot;&gt;&lt;b&gt;%c4Name%&lt;/b&gt;&lt;/font&gt;&lt;div&gt;[%c4Type%]&lt;/div&gt;&lt;br&gt;&lt;div&gt;&lt;font style=&quot;font-size: 11px&quot;&gt;&lt;font color=&quot;#cccccc&quot;&gt;%c4Description%&lt;/font&gt;&lt;/div&gt;" id="T8Oeap7GOdOtiYhdoOZ--17"><mxCell style="html=1;fontSize=11;dashed=0;whitespace=wrap;fillColor=#083F75;strokeColor=#06315C;fontColor=#ffffff;shape=mxgraph.c4.person2;align=center;metaEdit=1;points=[[0.5,0,0],[1,0.5,0],[1,0.75,0],[0.75,1,0],[0.5,1,0],[0.25,1,0],[0,0.75,0],[0,0.5,0]];resizable=0;labelBackgroundColor=none;labelBorderColor=none;comic=0;" parent="ZqhM-cbXaa5Ux5yi89ad-1" vertex="1"><mxGeometry x="-970" y="40" width="200" height="180" as="geometry"/></mxCell></object><object placeholders="1" c4Name="TileGenerator" c4Type="Component" c4Technology="OpenMapTiles" c4Description="Offline process to create vector map tiles using OpenStreetMaps data" label="&lt;font style=&quot;font-size: 16px&quot;&gt;&lt;b&gt;%c4Name%&lt;/b&gt;&lt;/font&gt;&lt;div&gt;[%c4Type%: %c4Technology%]&lt;/div&gt;&lt;br&gt;&lt;div&gt;&lt;font style=&quot;font-size: 11px&quot;&gt;%c4Description%&lt;/font&gt;&lt;/div&gt;" id="T8Oeap7GOdOtiYhdoOZ--19"><mxCell style="rounded=1;whiteSpace=wrap;html=1;labelBackgroundColor=none;fillColor=#63BEF2;fontColor=#ffffff;align=center;arcSize=6;strokeColor=#2086C9;metaEdit=1;metaData={&quot;c4Type&quot;:{&quot;editable&quot;:false}};resizable=0;points=[[0.25,0,0],[0.5,0,0],[0.75,0,0],[1,0.25,0],[1,0.5,0],[1,0.75,0],[0.75,1,0],[0.5,1,0],[0.25,1,0],[0,0.75,0],[0,0.5,0],[0,0.25,0]];" parent="ZqhM-cbXaa5Ux5yi89ad-1" vertex="1"><mxGeometry x="-630" y="590" width="240" height="120" as="geometry"/></mxCell></object><object placeholders="1" c4Name="Explorer-Game" c4Type="Container" c4Technology="SpringBoot" c4Description="Manages centralised game state" label="&lt;font style=&quot;font-size: 16px&quot;&gt;&lt;b&gt;%c4Name%&lt;/b&gt;&lt;/font&gt;&lt;div&gt;[%c4Type%: %c4Technology%]&lt;/div&gt;&lt;br&gt;&lt;div&gt;&lt;font style=&quot;font-size: 11px&quot;&gt;&lt;font color=&quot;#E6E6E6&quot;&gt;%c4Description%&lt;/font&gt;&lt;/div&gt;" id="T8Oeap7GOdOtiYhdoOZ--26"><mxCell style="rounded=1;whiteSpace=wrap;html=1;fontSize=11;labelBackgroundColor=none;fillColor=#23A2D9;fontColor=#ffffff;align=center;arcSize=10;strokeColor=#0E7DAD;metaEdit=1;resizable=0;points=[[0.25,0,0],[0.5,0,0],[0.75,0,0],[1,0.25,0],[1,0.5,0],[1,0.75,0],[0.75,1,0],[0.5,1,0],[0.25,1,0],[0,0.75,0],[0,0.5,0],[0,0.25,0]];sketch=0;fontFamily=Helvetica;" parent="ZqhM-cbXaa5Ux5yi89ad-1" vertex="1"><mxGeometry x="-1260" y="560" width="240" height="120" as="geometry"/></mxCell></object></root></mxGraphModel></diagram><diagram id="kJZXrsPY6iBJykEn6rpc" name="Explorer-App"><mxGraphModel dx="2483" dy="1132" grid="1" gridSize="10" guides="1" tooltips="1" connect="1" arrows="1" fold="1" page="1" pageScale="1" pageWidth="850" pageHeight="1100" math="0" shadow="0"><root><mxCell id="CF4DAPxincV6VeqQjOeW-0"/><mxCell id="CF4DAPxincV6VeqQjOeW-1" parent="CF4DAPxincV6VeqQjOeW-0"/><object placeholders="1" c4Name="Explorer-App" c4Type="ContainerScopeBoundary" c4Application="Container" label="&lt;font style=&quot;font-size: 16px&quot;&gt;&lt;b&gt;&lt;div style=&quot;text-align: left&quot;&gt;%c4Name%&lt;/div&gt;&lt;/b&gt;&lt;/font&gt;&lt;div style=&quot;text-align: left&quot;&gt;[%c4Application%]&lt;/div&gt;" id="ZN_UjqzDO55E8oFf7wJo-0"><mxCell style="rounded=1;fontSize=11;whiteSpace=wrap;html=1;dashed=1;arcSize=20;fillColor=none;strokeColor=#666666;fontColor=#333333;labelBackgroundColor=#FFFFFF;align=left;verticalAlign=bottom;labelBorderColor=none;spacingTop=0;spacing=10;dashPattern=8 4;metaEdit=1;rotatable=0;perimeter=rectanglePerimeter;noLabel=0;labelPadding=0;allowArrows=0;connectable=0;expand=0;recursiveResize=0;editable=1;pointerEvents=0;absoluteArcSize=1;points=[[0.25,0,0],[0.5,0,0],[0.75,0,0],[1,0.25,0],[1,0.5,0],[1,0.75,0],[0.75,1,0],[0.5,1,0],[0.25,1,0],[0,0.75,0],[0,0.5,0],[0,0.25,0]];sketch=0;fontFamily=Helvetica;" parent="CF4DAPxincV6VeqQjOeW-1" vertex="1"><mxGeometry x="110" y="190" width="1480" height="720" as="geometry"/></mxCell></object><mxCell id="ZN_UjqzDO55E8oFf7wJo-4" style="edgeStyle=orthogonalEdgeStyle;rounded=0;sketch=0;jumpStyle=gap;orthogonalLoop=1;jettySize=auto;html=1;exitX=0;exitY=0.5;exitDx=0;exitDy=0;exitPerimeter=0;entryX=1;entryY=0.5;entryDx=0;entryDy=0;entryPerimeter=0;labelBackgroundColor=default;" parent="CF4DAPxincV6VeqQjOeW-1" source="ZN_UjqzDO55E8oFf7wJo-1" target="ZN_UjqzDO55E8oFf7wJo-2" edge="1"><mxGeometry relative="1" as="geometry"/></mxCell><mxCell id="ZN_UjqzDO55E8oFf7wJo-5" value="Encapsulates" style="edgeLabel;html=1;align=center;verticalAlign=middle;resizable=0;points=[];" parent="ZN_UjqzDO55E8oFf7wJo-4" vertex="1" connectable="0"><mxGeometry x="0.1385" y="1" relative="1" as="geometry"><mxPoint as="offset"/></mxGeometry></mxCell><object placeholders="1" c4Name="Native Runtime" c4Type="Component" c4Technology="Capacitor/Cordova" c4Description="Wraps web-app into native iOS/Android application" label="&lt;font style=&quot;font-size: 16px&quot;&gt;&lt;b&gt;%c4Name%&lt;/b&gt;&lt;/font&gt;&lt;div&gt;[%c4Type%: %c4Technology%]&lt;/div&gt;&lt;br&gt;&lt;div&gt;&lt;font style=&quot;font-size: 11px&quot;&gt;%c4Description%&lt;/font&gt;&lt;/div&gt;" id="ZN_UjqzDO55E8oFf7wJo-1"><mxCell style="rounded=1;whiteSpace=wrap;html=1;labelBackgroundColor=none;fillColor=#63BEF2;fontColor=#ffffff;align=center;arcSize=6;strokeColor=#2086C9;metaEdit=1;metaData={&quot;c4Type&quot;:{&quot;editable&quot;:false}};resizable=0;points=[[0.25,0,0],[0.5,0,0],[0.75,0,0],[1,0.25,0],[1,0.5,0],[1,0.75,0],[0.75,1,0],[0.5,1,0],[0.25,1,0],[0,0.75,0],[0,0.5,0],[0,0.25,0]];" parent="CF4DAPxincV6VeqQjOeW-1" vertex="1"><mxGeometry x="940" y="220" width="240" height="120" as="geometry"/></mxCell></object><mxCell id="ZN_UjqzDO55E8oFf7wJo-16" value="Requests data to populate map" style="edgeStyle=orthogonalEdgeStyle;rounded=0;sketch=0;jumpStyle=gap;orthogonalLoop=1;jettySize=auto;html=1;exitX=0.25;exitY=1;exitDx=0;exitDy=0;exitPerimeter=0;entryX=0.5;entryY=0;entryDx=0;entryDy=0;entryPerimeter=0;labelBackgroundColor=default;" parent="CF4DAPxincV6VeqQjOeW-1" source="ZN_UjqzDO55E8oFf7wJo-2" target="ZN_UjqzDO55E8oFf7wJo-10" edge="1"><mxGeometry relative="1" as="geometry"/></mxCell><mxCell id="ZN_UjqzDO55E8oFf7wJo-17" style="edgeStyle=orthogonalEdgeStyle;rounded=0;sketch=0;jumpStyle=gap;orthogonalLoop=1;jettySize=auto;html=1;exitX=0.5;exitY=1;exitDx=0;exitDy=0;exitPerimeter=0;labelBackgroundColor=default;" parent="CF4DAPxincV6VeqQjOeW-1" source="ZN_UjqzDO55E8oFf7wJo-2" target="ZN_UjqzDO55E8oFf7wJo-18" edge="1"><mxGeometry relative="1" as="geometry"/></mxCell><mxCell id="ZN_UjqzDO55E8oFf7wJo-21" value="Requests details on an entity" style="edgeLabel;html=1;align=center;verticalAlign=middle;resizable=0;points=[];" parent="ZN_UjqzDO55E8oFf7wJo-17" vertex="1" connectable="0"><mxGeometry x="-0.1059" y="4" relative="1" as="geometry"><mxPoint as="offset"/></mxGeometry></mxCell><mxCell id="ZN_UjqzDO55E8oFf7wJo-26" style="edgeStyle=orthogonalEdgeStyle;rounded=0;sketch=0;jumpStyle=gap;orthogonalLoop=1;jettySize=auto;html=1;exitX=0.75;exitY=1;exitDx=0;exitDy=0;exitPerimeter=0;entryX=0.25;entryY=0;entryDx=0;entryDy=0;entryPerimeter=0;labelBackgroundColor=default;" parent="CF4DAPxincV6VeqQjOeW-1" source="ZN_UjqzDO55E8oFf7wJo-2" target="ZN_UjqzDO55E8oFf7wJo-25" edge="1"><mxGeometry relative="1" as="geometry"><Array as="points"><mxPoint x="620" y="380"/><mxPoint x="1030" y="380"/></Array></mxGeometry></mxCell><object placeholders="1" c4Name="Single Page Application (SPA)" c4Type="Component" c4Technology="Vue3" c4Description="" label="&lt;font style=&quot;font-size: 16px&quot;&gt;&lt;b&gt;%c4Name%&lt;/b&gt;&lt;/font&gt;&lt;div&gt;[%c4Type%: %c4Technology%]&lt;/div&gt;&lt;br&gt;&lt;div&gt;&lt;font style=&quot;font-size: 11px&quot;&gt;%c4Description%&lt;/font&gt;&lt;/div&gt;" id="ZN_UjqzDO55E8oFf7wJo-2"><mxCell style="rounded=1;whiteSpace=wrap;html=1;labelBackgroundColor=none;fillColor=#63BEF2;fontColor=#ffffff;align=center;arcSize=6;strokeColor=#2086C9;metaEdit=1;metaData={&quot;c4Type&quot;:{&quot;editable&quot;:false}};resizable=0;points=[[0.25,0,0],[0.5,0,0],[0.75,0,0],[1,0.25,0],[1,0.5,0],[1,0.75,0],[0.75,1,0],[0.5,1,0],[0.25,1,0],[0,0.75,0],[0,0.5,0],[0,0.25,0]];" parent="CF4DAPxincV6VeqQjOeW-1" vertex="1"><mxGeometry x="440" y="220" width="240" height="120" as="geometry"/></mxCell></object><object placeholders="1" c4Name="OpenStreetMap Plugin" c4Type="Component" c4Technology="TypeScript" c4Description="Description of component role/responsibility." label="&lt;font style=&quot;font-size: 16px&quot;&gt;&lt;b&gt;%c4Name%&lt;/b&gt;&lt;/font&gt;&lt;div&gt;[%c4Type%: %c4Technology%]&lt;/div&gt;&lt;br&gt;&lt;div&gt;&lt;font style=&quot;font-size: 11px&quot;&gt;%c4Description%&lt;/font&gt;&lt;/div&gt;" id="ZN_UjqzDO55E8oFf7wJo-9"><mxCell style="rounded=1;whiteSpace=wrap;html=1;labelBackgroundColor=none;fillColor=#63BEF2;fontColor=#ffffff;align=center;arcSize=6;strokeColor=#2086C9;metaEdit=1;metaData={&quot;c4Type&quot;:{&quot;editable&quot;:false}};resizable=0;points=[[0.25,0,0],[0.5,0,0],[0.75,0,0],[1,0.25,0],[1,0.5,0],[1,0.75,0],[0.75,1,0],[0.5,1,0],[0.25,1,0],[0,0.75,0],[0,0.5,0],[0,0.25,0]];" parent="CF4DAPxincV6VeqQjOeW-1" vertex="1"><mxGeometry x="120" y="670" width="240" height="120" as="geometry"/></mxCell></object><mxCell id="ZN_UjqzDO55E8oFf7wJo-11" value="fRetrieves abstract information from" style="edgeStyle=orthogonalEdgeStyle;rounded=0;sketch=0;jumpStyle=gap;orthogonalLoop=1;jettySize=auto;html=1;exitX=0.5;exitY=1;exitDx=0;exitDy=0;exitPerimeter=0;entryX=0.5;entryY=0;entryDx=0;entryDy=0;entryPerimeter=0;labelBackgroundColor=default;" parent="CF4DAPxincV6VeqQjOeW-1" source="ZN_UjqzDO55E8oFf7wJo-10" target="ZN_UjqzDO55E8oFf7wJo-9" edge="1"><mxGeometry x="-0.6842" relative="1" as="geometry"><mxPoint as="offset"/></mxGeometry></mxCell><mxCell id="ZN_UjqzDO55E8oFf7wJo-13" style="edgeStyle=orthogonalEdgeStyle;rounded=0;sketch=0;jumpStyle=gap;orthogonalLoop=1;jettySize=auto;html=1;exitX=0.5;exitY=1;exitDx=0;exitDy=0;exitPerimeter=0;labelBackgroundColor=default;" parent="CF4DAPxincV6VeqQjOeW-1" source="ZN_UjqzDO55E8oFf7wJo-10" target="ZN_UjqzDO55E8oFf7wJo-12" edge="1"><mxGeometry relative="1" as="geometry"/></mxCell><object placeholders="1" c4Name="GeoQueryPluginManager" c4Type="Component" c4Technology="TypeScript" c4Description="Stores and caches results of geo bounded queries." label="&lt;font style=&quot;font-size: 16px&quot;&gt;&lt;b&gt;%c4Name%&lt;/b&gt;&lt;/font&gt;&lt;div&gt;[%c4Type%: %c4Technology%]&lt;/div&gt;&lt;br&gt;&lt;div&gt;&lt;font style=&quot;font-size: 11px&quot;&gt;%c4Description%&lt;/font&gt;&lt;/div&gt;" id="ZN_UjqzDO55E8oFf7wJo-10"><mxCell style="rounded=1;whiteSpace=wrap;html=1;labelBackgroundColor=none;fillColor=#63BEF2;fontColor=#ffffff;align=center;arcSize=6;strokeColor=#2086C9;metaEdit=1;metaData={&quot;c4Type&quot;:{&quot;editable&quot;:false}};resizable=0;points=[[0.25,0,0],[0.5,0,0],[0.75,0,0],[1,0.25,0],[1,0.5,0],[1,0.75,0],[0.75,1,0],[0.5,1,0],[0.25,1,0],[0,0.75,0],[0,0.5,0],[0,0.25,0]];" parent="CF4DAPxincV6VeqQjOeW-1" vertex="1"><mxGeometry x="240" y="480" width="240" height="120" as="geometry"/></mxCell></object><object placeholders="1" c4Name="Wikidata Plugin" c4Type="Component" c4Technology="TypeScript" c4Description="Description of component role/responsibility." label="&lt;font style=&quot;font-size: 16px&quot;&gt;&lt;b&gt;%c4Name%&lt;/b&gt;&lt;/font&gt;&lt;div&gt;[%c4Type%: %c4Technology%]&lt;/div&gt;&lt;br&gt;&lt;div&gt;&lt;font style=&quot;font-size: 11px&quot;&gt;%c4Description%&lt;/font&gt;&lt;/div&gt;" id="ZN_UjqzDO55E8oFf7wJo-12"><mxCell style="rounded=1;whiteSpace=wrap;html=1;labelBackgroundColor=none;fillColor=#63BEF2;fontColor=#ffffff;align=center;arcSize=6;strokeColor=#2086C9;metaEdit=1;metaData={&quot;c4Type&quot;:{&quot;editable&quot;:false}};resizable=0;points=[[0.25,0,0],[0.5,0,0],[0.75,0,0],[1,0.25,0],[1,0.5,0],[1,0.75,0],[0.75,1,0],[0.5,1,0],[0.25,1,0],[0,0.75,0],[0,0.5,0],[0,0.25,0]];" parent="CF4DAPxincV6VeqQjOeW-1" vertex="1"><mxGeometry x="370" y="670" width="240" height="120" as="geometry"/></mxCell></object><object placeholders="1" c4Name="Wikipedia Plugin" c4Type="Component" c4Technology="TypeScript" c4Description="Description of component role/responsibility." label="&lt;font style=&quot;font-size: 16px&quot;&gt;&lt;b&gt;%c4Name%&lt;/b&gt;&lt;/font&gt;&lt;div&gt;[%c4Type%: %c4Technology%]&lt;/div&gt;&lt;br&gt;&lt;div&gt;&lt;font style=&quot;font-size: 11px&quot;&gt;%c4Description%&lt;/font&gt;&lt;/div&gt;" id="ZN_UjqzDO55E8oFf7wJo-14"><mxCell style="rounded=1;whiteSpace=wrap;html=1;labelBackgroundColor=none;fillColor=#63BEF2;fontColor=#ffffff;align=center;arcSize=6;strokeColor=#2086C9;metaEdit=1;metaData={&quot;c4Type&quot;:{&quot;editable&quot;:false}};resizable=0;points=[[0.25,0,0],[0.5,0,0],[0.75,0,0],[1,0.25,0],[1,0.5,0],[1,0.75,0],[0.75,1,0],[0.5,1,0],[0.25,1,0],[0,0.75,0],[0,0.5,0],[0,0.25,0]];" parent="CF4DAPxincV6VeqQjOeW-1" vertex="1"><mxGeometry x="620" y="670" width="240" height="120" as="geometry"/></mxCell></object><mxCell id="ZN_UjqzDO55E8oFf7wJo-19" style="edgeStyle=orthogonalEdgeStyle;rounded=0;sketch=0;jumpStyle=gap;orthogonalLoop=1;jettySize=auto;html=1;exitX=0.5;exitY=1;exitDx=0;exitDy=0;exitPerimeter=0;labelBackgroundColor=default;" parent="CF4DAPxincV6VeqQjOeW-1" source="ZN_UjqzDO55E8oFf7wJo-18" target="ZN_UjqzDO55E8oFf7wJo-14" edge="1"><mxGeometry relative="1" as="geometry"/></mxCell><mxCell id="ZN_UjqzDO55E8oFf7wJo-20" value="Gets detailed information from" style="edgeStyle=orthogonalEdgeStyle;rounded=0;sketch=0;jumpStyle=gap;orthogonalLoop=1;jettySize=auto;html=1;exitX=0.25;exitY=1;exitDx=0;exitDy=0;exitPerimeter=0;entryX=0.75;entryY=0;entryDx=0;entryDy=0;entryPerimeter=0;labelBackgroundColor=default;" parent="CF4DAPxincV6VeqQjOeW-1" source="ZN_UjqzDO55E8oFf7wJo-18" target="ZN_UjqzDO55E8oFf7wJo-12" edge="1"><mxGeometry relative="1" as="geometry"/></mxCell><object placeholders="1" c4Name="EntityDescriber" c4Type="Component" c4Technology="TypeScript" c4Description="Description of component role/responsibility." label="&lt;font style=&quot;font-size: 16px&quot;&gt;&lt;b&gt;%c4Name%&lt;/b&gt;&lt;/font&gt;&lt;div&gt;[%c4Type%: %c4Technology%]&lt;/div&gt;&lt;br&gt;&lt;div&gt;&lt;font style=&quot;font-size: 11px&quot;&gt;%c4Description%&lt;/font&gt;&lt;/div&gt;" id="ZN_UjqzDO55E8oFf7wJo-18"><mxCell style="rounded=1;whiteSpace=wrap;html=1;labelBackgroundColor=none;fillColor=#63BEF2;fontColor=#ffffff;align=center;arcSize=6;strokeColor=#2086C9;metaEdit=1;metaData={&quot;c4Type&quot;:{&quot;editable&quot;:false}};resizable=0;points=[[0.25,0,0],[0.5,0,0],[0.75,0,0],[1,0.25,0],[1,0.5,0],[1,0.75,0],[0.75,1,0],[0.5,1,0],[0.25,1,0],[0,0.75,0],[0,0.5,0],[0,0.25,0]];" parent="CF4DAPxincV6VeqQjOeW-1" vertex="1"><mxGeometry x="640" y="480" width="240" height="120" as="geometry"/></mxCell></object><object placeholders="1" c4Name="Query Plugins" c4Type="ContainerScopeBoundary" c4Application="Scope" label="&lt;font style=&quot;font-size: 16px&quot;&gt;&lt;b&gt;&lt;div style=&quot;text-align: left&quot;&gt;%c4Name%&lt;/div&gt;&lt;/b&gt;&lt;/font&gt;&lt;div style=&quot;text-align: left&quot;&gt;[%c4Application%]&lt;/div&gt;" id="ZN_UjqzDO55E8oFf7wJo-23"><mxCell style="rounded=1;fontSize=11;whiteSpace=wrap;html=1;dashed=1;arcSize=20;fillColor=none;strokeColor=#666666;fontColor=#333333;labelBackgroundColor=#FFFFFF;align=left;verticalAlign=bottom;labelBorderColor=none;spacingTop=0;spacing=10;dashPattern=8 4;metaEdit=1;rotatable=0;perimeter=rectanglePerimeter;noLabel=0;labelPadding=0;allowArrows=0;connectable=0;expand=0;recursiveResize=0;editable=1;pointerEvents=0;absoluteArcSize=1;points=[[0.25,0,0],[0.5,0,0],[0.75,0,0],[1,0.25,0],[1,0.5,0],[1,0.75,0],[0.75,1,0],[0.5,1,0],[0.25,1,0],[0,0.75,0],[0,0.5,0],[0,0.25,0]];sketch=0;fontFamily=Helvetica;" parent="CF4DAPxincV6VeqQjOeW-1" vertex="1"><mxGeometry x="120" y="610" width="810" height="250" as="geometry"/></mxCell></object><object placeholders="1" c4Name="Recommender Plugins" c4Type="ContainerScopeBoundary" c4Application="Scope" label="&lt;font style=&quot;font-size: 16px&quot;&gt;&lt;b&gt;&lt;div style=&quot;text-align: left&quot;&gt;%c4Name%&lt;/div&gt;&lt;/b&gt;&lt;/font&gt;&lt;div style=&quot;text-align: left&quot;&gt;[%c4Application%]&lt;/div&gt;" id="ZN_UjqzDO55E8oFf7wJo-24"><mxCell style="rounded=1;fontSize=11;whiteSpace=wrap;html=1;dashed=1;arcSize=20;fillColor=none;strokeColor=#666666;fontColor=#333333;labelBackgroundColor=#FFFFFF;align=left;verticalAlign=bottom;labelBorderColor=none;spacingTop=0;spacing=10;dashPattern=8 4;metaEdit=1;rotatable=0;perimeter=rectanglePerimeter;noLabel=0;labelPadding=0;allowArrows=0;connectable=0;expand=0;recursiveResize=0;editable=1;pointerEvents=0;absoluteArcSize=1;points=[[0.25,0,0],[0.5,0,0],[0.75,0,0],[1,0.25,0],[1,0.5,0],[1,0.75,0],[0.75,1,0],[0.5,1,0],[0.25,1,0],[0,0.75,0],[0,0.5,0],[0,0.25,0]];sketch=0;fontFamily=Helvetica;" parent="CF4DAPxincV6VeqQjOeW-1" vertex="1"><mxGeometry x="950" y="610" width="310" height="250" as="geometry"/></mxCell></object><object placeholders="1" c4Name="Word2Vec Plugin" c4Type="Component" c4Technology="TypeScript" c4Description="Description of component role/responsibility." label="&lt;font style=&quot;font-size: 16px&quot;&gt;&lt;b&gt;%c4Name%&lt;/b&gt;&lt;/font&gt;&lt;div&gt;[%c4Type%: %c4Technology%]&lt;/div&gt;&lt;br&gt;&lt;div&gt;&lt;font style=&quot;font-size: 11px&quot;&gt;%c4Description%&lt;/font&gt;&lt;/div&gt;" id="ZN_UjqzDO55E8oFf7wJo-25"><mxCell style="rounded=1;whiteSpace=wrap;html=1;labelBackgroundColor=none;fillColor=#63BEF2;fontColor=#ffffff;align=center;arcSize=6;strokeColor=#2086C9;metaEdit=1;metaData={&quot;c4Type&quot;:{&quot;editable&quot;:false}};resizable=0;points=[[0.25,0,0],[0.5,0,0],[0.75,0,0],[1,0.25,0],[1,0.5,0],[1,0.75,0],[0.75,1,0],[0.5,1,0],[0.25,1,0],[0,0.75,0],[0,0.5,0],[0,0.25,0]];" parent="CF4DAPxincV6VeqQjOeW-1" vertex="1"><mxGeometry x="970" y="670" width="240" height="120" as="geometry"/></mxCell></object><object placeholders="1" c4Name="Action Plugins" c4Type="ContainerScopeBoundary" c4Application="Scope" label="&lt;font style=&quot;font-size: 16px&quot;&gt;&lt;b&gt;&lt;div style=&quot;text-align: left&quot;&gt;%c4Name%&lt;/div&gt;&lt;/b&gt;&lt;/font&gt;&lt;div style=&quot;text-align: left&quot;&gt;[%c4Application%]&lt;/div&gt;" id="ZN_UjqzDO55E8oFf7wJo-27"><mxCell style="rounded=1;fontSize=11;whiteSpace=wrap;html=1;dashed=1;arcSize=20;fillColor=none;strokeColor=#666666;fontColor=#333333;labelBackgroundColor=#FFFFFF;align=left;verticalAlign=bottom;labelBorderColor=none;spacingTop=0;spacing=10;dashPattern=8 4;metaEdit=1;rotatable=0;perimeter=rectanglePerimeter;noLabel=0;labelPadding=0;allowArrows=0;connectable=0;expand=0;recursiveResize=0;editable=1;pointerEvents=0;absoluteArcSize=1;points=[[0.25,0,0],[0.5,0,0],[0.75,0,0],[1,0.25,0],[1,0.5,0],[1,0.75,0],[0.75,1,0],[0.5,1,0],[0.25,1,0],[0,0.75,0],[0,0.5,0],[0,0.25,0]];sketch=0;fontFamily=Helvetica;" parent="CF4DAPxincV6VeqQjOeW-1" vertex="1"><mxGeometry x="1275" y="610" width="310" height="250" as="geometry"/></mxCell></object></root></mxGraphModel></diagram><diagram id="6uhSyCveOoUZzWKpaPqy" name="GIS"><mxGraphModel dx="2483" dy="1132" grid="1" gridSize="10" guides="1" tooltips="1" connect="1" arrows="1" fold="1" page="1" pageScale="1" pageWidth="1654" pageHeight="1169" background="none" math="0" shadow="0"><root><mxCell id="O5V8AI_HLD-BTDn9JImG-0"/><mxCell id="O5V8AI_HLD-BTDn9JImG-1" parent="O5V8AI_HLD-BTDn9JImG-0"/><object placeholders="1" c4Name="[Components] Explorer-GIS" c4Type="ContainerDiagramTitle" c4Description="Diagram short description" label="&lt;font style=&quot;font-size: 16px&quot;&gt;&lt;b&gt;&lt;div style=&quot;text-align: left&quot;&gt;%c4Name%&lt;/div&gt;&lt;/b&gt;&lt;/font&gt;&lt;div style=&quot;text-align: left&quot;&gt;%c4Description%&lt;/div&gt;" id="A55ZgQAVANqojuJ6Cqyk-0"><mxCell style="text;html=1;strokeColor=none;fillColor=none;align=left;verticalAlign=top;whiteSpace=wrap;rounded=0;metaEdit=1;allowArrows=0;resizable=1;rotatable=0;connectable=0;recursiveResize=0;expand=0;pointerEvents=0;points=[[0.25,0,0],[0.5,0,0],[0.75,0,0],[1,0.25,0],[1,0.5,0],[1,0.75,0],[0.75,1,0],[0.5,1,0],[0.25,1,0],[0,0.75,0],[0,0.5,0],[0,0.25,0]];labelBackgroundColor=none;sketch=0;fontFamily=Helvetica;fontSize=10;fontColor=default;" parent="O5V8AI_HLD-BTDn9JImG-1" vertex="1"><mxGeometry x="40" y="1080" width="260" height="40" as="geometry"/></mxCell></object><object placeholders="1" c4Name="Explorer-GIS" c4Type="ContainerScopeBoundary" c4Application="Container" label="&lt;font style=&quot;font-size: 16px&quot;&gt;&lt;b&gt;&lt;div style=&quot;text-align: left&quot;&gt;%c4Name%&lt;/div&gt;&lt;/b&gt;&lt;/font&gt;&lt;div style=&quot;text-align: left&quot;&gt;[%c4Application%]&lt;/div&gt;" id="JrZb4eJMFPpWHiIt_QXf-0"><mxCell style="rounded=1;fontSize=11;whiteSpace=wrap;html=1;dashed=1;arcSize=20;fillColor=none;strokeColor=#666666;fontColor=#333333;labelBackgroundColor=#FFFFFF;align=left;verticalAlign=bottom;labelBorderColor=none;spacingTop=0;spacing=10;dashPattern=8 4;metaEdit=1;rotatable=0;perimeter=rectanglePerimeter;noLabel=0;labelPadding=0;allowArrows=0;connectable=0;expand=0;recursiveResize=0;editable=1;pointerEvents=0;absoluteArcSize=1;points=[[0.25,0,0],[0.5,0,0],[0.75,0,0],[1,0.25,0],[1,0.5,0],[1,0.75,0],[0.75,1,0],[0.5,1,0],[0.25,1,0],[0,0.75,0],[0,0.5,0],[0,0.25,0]];sketch=0;fontFamily=Helvetica;" parent="O5V8AI_HLD-BTDn9JImG-1" vertex="1"><mxGeometry x="80" y="200" width="1480" height="720" as="geometry"/></mxCell></object><object placeholders="1" c4Name="GeoJSON Controller" c4Type="Component" c4Technology="Spring REST Controllr" c4Description="Description of component role/responsibility." label="&lt;font style=&quot;font-size: 16px&quot;&gt;&lt;b&gt;%c4Name%&lt;/b&gt;&lt;/font&gt;&lt;div&gt;[%c4Type%: %c4Technology%]&lt;/div&gt;&lt;br&gt;&lt;div&gt;&lt;font style=&quot;font-size: 11px&quot;&gt;%c4Description%&lt;/font&gt;&lt;/div&gt;" id="JrZb4eJMFPpWHiIt_QXf-1"><mxCell style="rounded=1;whiteSpace=wrap;html=1;labelBackgroundColor=none;fillColor=#63BEF2;fontColor=#ffffff;align=center;arcSize=6;strokeColor=#2086C9;metaEdit=1;resizable=0;points=[[0.25,0,0],[0.5,0,0],[0.75,0,0],[1,0.25,0],[1,0.5,0],[1,0.75,0],[0.75,1,0],[0.5,1,0],[0.25,1,0],[0,0.75,0],[0,0.5,0],[0,0.25,0]];sketch=0;fontFamily=Helvetica;fontSize=10;" parent="O5V8AI_HLD-BTDn9JImG-1" vertex="1"><mxGeometry x="260" y="230" width="240" height="120" as="geometry"/></mxCell></object><object placeholders="1" c4Name="QueryProvider" c4Type="Component" c4Technology="Spring Service" c4Description="Description of component role/responsibility." label="&lt;font style=&quot;font-size: 16px&quot;&gt;&lt;b&gt;%c4Name%&lt;/b&gt;&lt;/font&gt;&lt;div&gt;[%c4Type%: %c4Technology%]&lt;/div&gt;&lt;br&gt;&lt;div&gt;&lt;font style=&quot;font-size: 11px&quot;&gt;%c4Description%&lt;/font&gt;&lt;/div&gt;" id="JrZb4eJMFPpWHiIt_QXf-2"><mxCell style="rounded=1;whiteSpace=wrap;html=1;labelBackgroundColor=none;fillColor=#63BEF2;fontColor=#ffffff;align=center;arcSize=6;strokeColor=#2086C9;metaEdit=1;resizable=0;points=[[0.25,0,0],[0.5,0,0],[0.75,0,0],[1,0.25,0],[1,0.5,0],[1,0.75,0],[0.75,1,0],[0.5,1,0],[0.25,1,0],[0,0.75,0],[0,0.5,0],[0,0.25,0]];sketch=0;fontFamily=Helvetica;fontSize=10;" parent="O5V8AI_HLD-BTDn9JImG-1" vertex="1"><mxGeometry x="130" y="430" width="240" height="120" as="geometry"/></mxCell></object><object placeholders="1" c4Name="SessionModel" c4Type="Component" c4Technology="Spring Service" c4Description="Session scoped RDF model upon which location bounded queries are performed." label="&lt;font style=&quot;font-size: 16px&quot;&gt;&lt;b&gt;%c4Name%&lt;/b&gt;&lt;/font&gt;&lt;div&gt;[%c4Type%: %c4Technology%]&lt;/div&gt;&lt;br&gt;&lt;div&gt;&lt;font style=&quot;font-size: 11px&quot;&gt;%c4Description%&lt;/font&gt;&lt;/div&gt;" id="JrZb4eJMFPpWHiIt_QXf-3"><mxCell style="rounded=1;whiteSpace=wrap;html=1;labelBackgroundColor=none;fillColor=#63BEF2;fontColor=#ffffff;align=center;arcSize=6;strokeColor=#2086C9;metaEdit=1;resizable=0;points=[[0.25,0,0],[0.5,0,0],[0.75,0,0],[1,0.25,0],[1,0.5,0],[1,0.75,0],[0.75,1,0],[0.5,1,0],[0.25,1,0],[0,0.75,0],[0,0.5,0],[0,0.25,0]];sketch=0;fontFamily=Helvetica;fontSize=10;" parent="O5V8AI_HLD-BTDn9JImG-1" vertex="1"><mxGeometry x="400" y="430" width="240" height="120" as="geometry"/></mxCell></object><object placeholders="1" c4Name="RdfRetriever" c4Type="Component" c4Technology="Spring Bean" c4Description="Description of component role/responsibility." label="&lt;font style=&quot;font-size: 16px&quot;&gt;&lt;b&gt;%c4Name%&lt;/b&gt;&lt;/font&gt;&lt;div&gt;[%c4Type%: %c4Technology%]&lt;/div&gt;&lt;br&gt;&lt;div&gt;&lt;font style=&quot;font-size: 11px&quot;&gt;%c4Description%&lt;/font&gt;&lt;/div&gt;" id="JrZb4eJMFPpWHiIt_QXf-4"><mxCell style="rounded=1;whiteSpace=wrap;html=1;labelBackgroundColor=none;fillColor=#63BEF2;fontColor=#ffffff;align=center;arcSize=6;strokeColor=#2086C9;metaEdit=1;resizable=0;points=[[0.25,0,0],[0.5,0,0],[0.75,0,0],[1,0.25,0],[1,0.5,0],[1,0.75,0],[0.75,1,0],[0.5,1,0],[0.25,1,0],[0,0.75,0],[0,0.5,0],[0,0.25,0]];sketch=0;fontFamily=Helvetica;fontSize=10;" parent="O5V8AI_HLD-BTDn9JImG-1" vertex="1"><mxGeometry x="400" y="680" width="240" height="120" as="geometry"/></mxCell></object><object placeholders="1" c4Type="Relationship" c4Description="Gets RDF from" label="&lt;div style=&quot;text-align: left&quot;&gt;&lt;div style=&quot;text-align: center&quot;&gt;&lt;b&gt;%c4Description%&lt;/b&gt;&lt;/div&gt;" id="JrZb4eJMFPpWHiIt_QXf-7"><mxCell style="endArrow=blockThin;html=1;fontSize=10;fontColor=#404040;strokeWidth=1;endFill=1;strokeColor=#828282;elbow=vertical;metaEdit=1;endSize=14;startSize=14;jumpStyle=arc;jumpSize=16;rounded=0;edgeStyle=orthogonalEdgeStyle;labelBackgroundColor=#FFFFFF;sketch=0;fontFamily=Helvetica;fillColor=#F45B69;shape=connector;exitX=0.5;exitY=1;exitDx=0;exitDy=0;exitPerimeter=0;" parent="O5V8AI_HLD-BTDn9JImG-1" source="JrZb4eJMFPpWHiIt_QXf-3" target="JrZb4eJMFPpWHiIt_QXf-4" edge="1"><mxGeometry width="240" relative="1" as="geometry"><mxPoint x="660" y="600" as="sourcePoint"/><mxPoint x="900" y="600" as="targetPoint"/></mxGeometry></mxCell></object><object placeholders="1" c4Name="WikiData" c4Type="Software System" c4Description="WikiData Knowledgebase" label="&lt;font style=&quot;font-size: 16px&quot;&gt;&lt;b&gt;%c4Name%&lt;/b&gt;&lt;/font&gt;&lt;div&gt;[%c4Type%]&lt;/div&gt;&lt;br&gt;&lt;div&gt;&lt;font style=&quot;font-size: 11px&quot;&gt;&lt;font color=&quot;#cccccc&quot;&gt;%c4Description%&lt;/font&gt;&lt;/div&gt;" id="1v-KxDMx8jLbZHZOPRsZ-0"><mxCell style="rounded=1;whiteSpace=wrap;html=1;labelBackgroundColor=none;fillColor=#8C8496;fontColor=#ffffff;align=center;arcSize=10;strokeColor=#736782;metaEdit=1;resizable=0;points=[[0.25,0,0],[0.5,0,0],[0.75,0,0],[1,0.25,0],[1,0.5,0],[1,0.75,0],[0.75,1,0],[0.5,1,0],[0.25,1,0],[0,0.75,0],[0,0.5,0],[0,0.25,0]];shadow=0;labelBorderColor=none;comic=0;sketch=0;" parent="O5V8AI_HLD-BTDn9JImG-1" vertex="1"><mxGeometry x="400" y="950" width="240" height="120" as="geometry"/></mxCell></object><object placeholders="1" c4Type="Relationship" c4Description="Gets queries from" label="&lt;div style=&quot;text-align: left&quot;&gt;&lt;div style=&quot;text-align: center&quot;&gt;&lt;b&gt;%c4Description%&lt;/b&gt;&lt;/div&gt;" id="JEW66C0yo7_5BTlQYLuJ-0"><mxCell style="endArrow=blockThin;html=1;fontSize=10;fontColor=#404040;strokeWidth=1;endFill=1;strokeColor=#828282;elbow=vertical;metaEdit=1;endSize=14;startSize=14;jumpStyle=arc;jumpSize=16;rounded=0;edgeStyle=orthogonalEdgeStyle;labelBackgroundColor=#FFFFFF;sketch=0;fontFamily=Helvetica;fillColor=#F45B69;shape=connector;exitX=0.25;exitY=1;exitDx=0;exitDy=0;exitPerimeter=0;" parent="O5V8AI_HLD-BTDn9JImG-1" source="JrZb4eJMFPpWHiIt_QXf-1" target="JrZb4eJMFPpWHiIt_QXf-2" edge="1"><mxGeometry width="240" relative="1" as="geometry"><mxPoint x="160" y="700" as="sourcePoint"/><mxPoint x="400" y="700" as="targetPoint"/></mxGeometry></mxCell></object><object placeholders="1" c4Type="Relationship" c4Description="Executes queries on" label="&lt;div style=&quot;text-align: left&quot;&gt;&lt;div style=&quot;text-align: center&quot;&gt;&lt;b&gt;%c4Description%&lt;/b&gt;&lt;/div&gt;" id="JEW66C0yo7_5BTlQYLuJ-1"><mxCell style="endArrow=blockThin;html=1;fontSize=10;fontColor=#404040;strokeWidth=1;endFill=1;strokeColor=#828282;elbow=vertical;metaEdit=1;endSize=14;startSize=14;jumpStyle=arc;jumpSize=16;rounded=0;edgeStyle=orthogonalEdgeStyle;labelBackgroundColor=#FFFFFF;sketch=0;fontFamily=Helvetica;fillColor=#F45B69;shape=connector;exitX=0.75;exitY=1;exitDx=0;exitDy=0;exitPerimeter=0;" parent="O5V8AI_HLD-BTDn9JImG-1" source="JrZb4eJMFPpWHiIt_QXf-1" target="JrZb4eJMFPpWHiIt_QXf-3" edge="1"><mxGeometry width="240" relative="1" as="geometry"><mxPoint x="170" y="630" as="sourcePoint"/><mxPoint x="410" y="630" as="targetPoint"/></mxGeometry></mxCell></object><object placeholders="1" c4Name="Details Controller" c4Type="Component" c4Technology="Spring REST Controller" c4Description="Description of component role/responsibility." label="&lt;font style=&quot;font-size: 16px&quot;&gt;&lt;b&gt;%c4Name%&lt;/b&gt;&lt;/font&gt;&lt;div&gt;[%c4Type%: %c4Technology%]&lt;/div&gt;&lt;br&gt;&lt;div&gt;&lt;font style=&quot;font-size: 11px&quot;&gt;%c4Description%&lt;/font&gt;&lt;/div&gt;" id="JEW66C0yo7_5BTlQYLuJ-6"><mxCell style="rounded=1;whiteSpace=wrap;html=1;labelBackgroundColor=none;fillColor=#63BEF2;fontColor=#ffffff;align=center;arcSize=6;strokeColor=#2086C9;metaEdit=1;resizable=0;points=[[0.25,0,0],[0.5,0,0],[0.75,0,0],[1,0.25,0],[1,0.5,0],[1,0.75,0],[0.75,1,0],[0.5,1,0],[0.25,1,0],[0,0.75,0],[0,0.5,0],[0,0.25,0]];sketch=0;fontFamily=Helvetica;fontSize=10;" parent="O5V8AI_HLD-BTDn9JImG-1" vertex="1"><mxGeometry x="790" y="230" width="240" height="120" as="geometry"/></mxCell></object><object placeholders="1" c4Name="Finder" c4Type="Component" c4Technology="Class" c4Description="Description of component role/responsibility." label="&lt;font style=&quot;font-size: 16px&quot;&gt;&lt;b&gt;%c4Name%&lt;/b&gt;&lt;/font&gt;&lt;div&gt;[%c4Type%: %c4Technology%]&lt;/div&gt;&lt;br&gt;&lt;div&gt;&lt;font style=&quot;font-size: 11px&quot;&gt;%c4Description%&lt;/font&gt;&lt;/div&gt;" id="3nB0agkd0q03ZO1B3v1Z-0"><mxCell style="rounded=1;whiteSpace=wrap;html=1;labelBackgroundColor=none;fillColor=#63BEF2;fontColor=#ffffff;align=center;arcSize=6;strokeColor=#2086C9;metaEdit=1;resizable=0;points=[[0.25,0,0],[0.5,0,0],[0.75,0,0],[1,0.25,0],[1,0.5,0],[1,0.75,0],[0.75,1,0],[0.5,1,0],[0.25,1,0],[0,0.75,0],[0,0.5,0],[0,0.25,0]];sketch=0;fontFamily=Helvetica;fontSize=10;" parent="O5V8AI_HLD-BTDn9JImG-1" vertex="1"><mxGeometry x="820" y="430" width="240" height="120" as="geometry"/></mxCell></object><object placeholders="1" c4Name="Provider" c4Type="Component" c4Technology="Class" c4Description="Provides selected RDF knowledge" label="&lt;font style=&quot;font-size: 16px&quot;&gt;&lt;b&gt;%c4Name%&lt;/b&gt;&lt;/font&gt;&lt;div&gt;[%c4Type%: %c4Technology%]&lt;/div&gt;&lt;br&gt;&lt;div&gt;&lt;font style=&quot;font-size: 11px&quot;&gt;%c4Description%&lt;/font&gt;&lt;/div&gt;" id="3nB0agkd0q03ZO1B3v1Z-3"><mxCell style="rounded=1;whiteSpace=wrap;html=1;labelBackgroundColor=none;fillColor=#63BEF2;fontColor=#ffffff;align=center;arcSize=6;strokeColor=#2086C9;metaEdit=1;resizable=0;points=[[0.25,0,0],[0.5,0,0],[0.75,0,0],[1,0.25,0],[1,0.5,0],[1,0.75,0],[0.75,1,0],[0.5,1,0],[0.25,1,0],[0,0.75,0],[0,0.5,0],[0,0.25,0]];sketch=0;fontFamily=Helvetica;fontSize=10;" parent="O5V8AI_HLD-BTDn9JImG-1" vertex="1"><mxGeometry x="690" y="560" width="240" height="120" as="geometry"/></mxCell></object><object placeholders="1" c4Name="Resolver" c4Type="Component" c4Technology="Class" c4Description="Parses RDF Knowledge to return structured output" label="&lt;font style=&quot;font-size: 16px&quot;&gt;&lt;b&gt;%c4Name%&lt;/b&gt;&lt;/font&gt;&lt;div&gt;[%c4Type%: %c4Technology%]&lt;/div&gt;&lt;br&gt;&lt;div&gt;&lt;font style=&quot;font-size: 11px&quot;&gt;%c4Description%&lt;/font&gt;&lt;/div&gt;" id="3nB0agkd0q03ZO1B3v1Z-4"><mxCell style="rounded=1;whiteSpace=wrap;html=1;labelBackgroundColor=none;fillColor=#63BEF2;fontColor=#ffffff;align=center;arcSize=6;strokeColor=#2086C9;metaEdit=1;resizable=0;points=[[0.25,0,0],[0.5,0,0],[0.75,0,0],[1,0.25,0],[1,0.5,0],[1,0.75,0],[0.75,1,0],[0.5,1,0],[0.25,1,0],[0,0.75,0],[0,0.5,0],[0,0.25,0]];sketch=0;fontFamily=Helvetica;fontSize=10;" parent="O5V8AI_HLD-BTDn9JImG-1" vertex="1"><mxGeometry x="940" y="560" width="240" height="120" as="geometry"/></mxCell></object></root></mxGraphModel></diagram><diagram id="i9_Y104m1rmN5_AeG4wc" name="Context"><mxGraphModel dx="3283" dy="1932" grid="1" gridSize="10" guides="1" tooltips="1" connect="1" arrows="1" fold="1" page="0" pageScale="1" pageWidth="1169" pageHeight="827" background="none" math="0" shadow="0"><root><object label="" id="0"><mxCell/></object><mxCell id="1" parent="0"/><object placeholders="1" c4Name="[System Context] Explorer" c4Type="ContainerScopeBoundary" c4Description="Top level representation of Explorer application architecture" label="&lt;font style=&quot;font-size: 16px&quot;&gt;&lt;b&gt;&lt;div style=&quot;text-align: left&quot;&gt;%c4Name%&lt;/div&gt;&lt;/b&gt;&lt;/font&gt;&lt;div style=&quot;text-align: left&quot;&gt;%c4Description%&lt;/div&gt;" id="_uUmlI5_hu_qmv1LWbiK-20"><mxCell style="text;html=1;strokeColor=none;fillColor=none;align=left;verticalAlign=top;whiteSpace=wrap;rounded=0;metaEdit=1;allowArrows=0;resizable=1;rotatable=0;connectable=0;recursiveResize=0;expand=0;pointerEvents=0;points=[[0.25,0,0],[0.5,0,0],[0.75,0,0],[1,0.25,0],[1,0.5,0],[1,0.75,0],[0.75,1,0],[0.5,1,0],[0.25,1,0],[0,0.75,0],[0,0.5,0],[0,0.25,0]];labelBackgroundColor=none;labelBorderColor=none;fontColor=#FFFFFF;comic=0;" parent="1" vertex="1"><mxGeometry x="-469" y="803" width="478" height="40" as="geometry"/></mxCell></object><object placeholders="1" c4Name="User" c4Type="Person" c4Description="A customer with regular user account" label="&lt;font style=&quot;font-size: 16px&quot;&gt;&lt;b&gt;%c4Name%&lt;/b&gt;&lt;/font&gt;&lt;div&gt;[%c4Type%]&lt;/div&gt;&lt;br&gt;&lt;div&gt;&lt;font style=&quot;font-size: 11px&quot;&gt;&lt;font color=&quot;#cccccc&quot;&gt;%c4Description%&lt;/font&gt;&lt;/div&gt;" id="wIxCeKww_eRo2Onf7-u2-1"><mxCell style="html=1;fontSize=11;dashed=0;whitespace=wrap;fillColor=#083F75;strokeColor=#06315C;fontColor=#ffffff;shape=mxgraph.c4.person2;align=center;metaEdit=1;points=[[0.5,0,0],[1,0.5,0],[1,0.75,0],[0.75,1,0],[0.5,1,0],[0.25,1,0],[0,0.75,0],[0,0.5,0]];resizable=0;labelBackgroundColor=none;labelBorderColor=none;comic=0;" parent="1" vertex="1"><mxGeometry x="398" y="-430" width="200" height="180" as="geometry"/></mxCell></object><object placeholders="1" c4Name="Explorer-GIS" c4Type="Software System" c4Description="Explorer GIS (Geographic Information System)" label="&lt;font style=&quot;font-size: 16px&quot;&gt;&lt;b&gt;%c4Name%&lt;/b&gt;&lt;/font&gt;&lt;div&gt;[%c4Type%]&lt;/div&gt;&lt;br&gt;&lt;div&gt;&lt;font style=&quot;font-size: 11px&quot;&gt;&lt;font color=&quot;#cccccc&quot;&gt;%c4Description%&lt;/font&gt;&lt;/div&gt;" id="wIxCeKww_eRo2Onf7-u2-2"><mxCell style="rounded=1;whiteSpace=wrap;html=1;labelBackgroundColor=none;fillColor=#1061B0;fontColor=#ffffff;align=center;arcSize=10;strokeColor=#0D5091;metaEdit=1;resizable=0;points=[[0.25,0,0],[0.5,0,0],[0.75,0,0],[1,0.25,0],[1,0.5,0],[1,0.75,0],[0.75,1,0],[0.5,1,0],[0.25,1,0],[0,0.75,0],[0,0.5,0],[0,0.25,0]];labelBorderColor=none;comic=0;" parent="1" vertex="1"><mxGeometry x="-410" y="30" width="240" height="120" as="geometry"/></mxCell></object><object placeholders="1" c4Name="Explorer-User" c4Type="Software System" c4Description="User management system" label="&lt;font style=&quot;font-size: 16px&quot;&gt;&lt;b&gt;%c4Name%&lt;/b&gt;&lt;/font&gt;&lt;div&gt;[%c4Type%]&lt;/div&gt;&lt;br&gt;&lt;div&gt;&lt;font style=&quot;font-size: 11px&quot;&gt;&lt;font color=&quot;#cccccc&quot;&gt;%c4Description%&lt;/font&gt;&lt;/div&gt;" id="wIxCeKww_eRo2Onf7-u2-3"><mxCell style="rounded=1;whiteSpace=wrap;html=1;labelBackgroundColor=none;fillColor=#1061B0;fontColor=#ffffff;align=center;arcSize=10;strokeColor=#0D5091;metaEdit=1;resizable=0;points=[[0.25,0,0],[0.5,0,0],[0.75,0,0],[1,0.25,0],[1,0.5,0],[1,0.75,0],[0.75,1,0],[0.5,1,0],[0.25,1,0],[0,0.75,0],[0,0.5,0],[0,0.25,0]];labelBorderColor=none;comic=0;sketch=0;shadow=0;" parent="1" vertex="1"><mxGeometry x="-290" y="190" width="240" height="120" as="geometry"/></mxCell></object><object placeholders="1" c4Name="Authentication Server" c4Type="Software System" c4Description="Keycloak" label="&lt;font style=&quot;font-size: 16px&quot;&gt;&lt;b&gt;%c4Name%&lt;/b&gt;&lt;/font&gt;&lt;div&gt;[%c4Type%]&lt;/div&gt;&lt;br&gt;&lt;div&gt;&lt;font style=&quot;font-size: 11px&quot;&gt;&lt;font color=&quot;#cccccc&quot;&gt;%c4Description%&lt;/font&gt;&lt;/div&gt;" id="wIxCeKww_eRo2Onf7-u2-4"><mxCell style="rounded=1;whiteSpace=wrap;html=1;labelBackgroundColor=none;fillColor=#8C8496;fontColor=#ffffff;align=center;arcSize=10;strokeColor=#736782;metaEdit=1;resizable=0;points=[[0.25,0,0],[0.5,0,0],[0.75,0,0],[1,0.25,0],[1,0.5,0],[1,0.75,0],[0.75,1,0],[0.5,1,0],[0.25,1,0],[0,0.75,0],[0,0.5,0],[0,0.25,0]];labelBorderColor=none;comic=0;" parent="1" vertex="1"><mxGeometry x="-310" y="-190" width="240" height="120" as="geometry"/></mxCell></object><object placeholders="1" c4Name="TileServer" c4Type="Software System" c4Description="The internal system for serving vector tiles to frontend clients" label="&lt;font style=&quot;font-size: 16px&quot;&gt;&lt;b&gt;%c4Name%&lt;/b&gt;&lt;/font&gt;&lt;div&gt;[%c4Type%]&lt;/div&gt;&lt;br&gt;&lt;div&gt;&lt;font style=&quot;font-size: 11px&quot;&gt;&lt;font color=&quot;#cccccc&quot;&gt;%c4Description%&lt;/font&gt;&lt;/div&gt;" id="wIxCeKww_eRo2Onf7-u2-5"><mxCell style="rounded=1;whiteSpace=wrap;html=1;labelBackgroundColor=none;fillColor=#8C8496;fontColor=#ffffff;align=center;arcSize=10;strokeColor=#736782;metaEdit=1;resizable=0;points=[[0.25,0,0],[0.5,0,0],[0.75,0,0],[1,0.25,0],[1,0.5,0],[1,0.75,0],[0.75,1,0],[0.5,1,0],[0.25,1,0],[0,0.75,0],[0,0.5,0],[0,0.25,0]];labelBorderColor=none;comic=0;" parent="1" vertex="1"><mxGeometry x="-330" y="-320" width="240" height="120" as="geometry"/></mxCell></object><object placeholders="1" c4Name="Explorer" c4Type="Software System" c4Description="Allows users to view their surroundings and points of interest on a map." label="&lt;font style=&quot;font-size: 16px&quot;&gt;&lt;b&gt;%c4Name%&lt;/b&gt;&lt;/font&gt;&lt;div&gt;[%c4Type%]&lt;/div&gt;&lt;br&gt;&lt;div&gt;&lt;font style=&quot;font-size: 11px&quot;&gt;&lt;font color=&quot;#cccccc&quot;&gt;%c4Description%&lt;/font&gt;&lt;/div&gt;" id="wIxCeKww_eRo2Onf7-u2-6"><mxCell style="rounded=1;whiteSpace=wrap;html=1;labelBackgroundColor=none;fillColor=#1061B0;fontColor=#ffffff;align=center;arcSize=10;strokeColor=#0D5091;metaEdit=1;resizable=0;points=[[0.25,0,0],[0.5,0,0],[0.75,0,0],[1,0.25,0],[1,0.5,0],[1,0.75,0],[0.75,1,0],[0.5,1,0],[0.25,1,0],[0,0.75,0],[0,0.5,0],[0,0.25,0]];labelBorderColor=none;comic=0;" parent="1" vertex="1"><mxGeometry x="378" y="-110" width="240" height="120" as="geometry"/></mxCell></object><object placeholders="1" c4Name="WikiData" c4Type="Software System" c4Description="WikiData Knowledgebase" label="&lt;font style=&quot;font-size: 16px&quot;&gt;&lt;b&gt;%c4Name%&lt;/b&gt;&lt;/font&gt;&lt;div&gt;[%c4Type%]&lt;/div&gt;&lt;br&gt;&lt;div&gt;&lt;font style=&quot;font-size: 11px&quot;&gt;&lt;font color=&quot;#cccccc&quot;&gt;%c4Description%&lt;/font&gt;&lt;/div&gt;" id="wIxCeKww_eRo2Onf7-u2-8"><mxCell style="rounded=1;whiteSpace=wrap;html=1;labelBackgroundColor=none;fillColor=#8C8496;fontColor=#ffffff;align=center;arcSize=10;strokeColor=#736782;metaEdit=1;resizable=0;points=[[0.25,0,0],[0.5,0,0],[0.75,0,0],[1,0.25,0],[1,0.5,0],[1,0.75,0],[0.75,1,0],[0.5,1,0],[0.25,1,0],[0,0.75,0],[0,0.5,0],[0,0.25,0]];shadow=0;labelBorderColor=none;comic=0;sketch=0;" parent="1" vertex="1"><mxGeometry x="560" y="130" width="240" height="120" as="geometry"/></mxCell></object><object placeholders="1" c4Name="OpenStreetMaps" c4Type="Software System" c4Description="External source of mapping and geospatial information" label="&lt;font style=&quot;font-size: 16px&quot;&gt;&lt;b&gt;%c4Name%&lt;/b&gt;&lt;/font&gt;&lt;div&gt;[%c4Type%]&lt;/div&gt;&lt;br&gt;&lt;div&gt;&lt;font style=&quot;font-size: 11px&quot;&gt;&lt;font color=&quot;#cccccc&quot;&gt;%c4Description%&lt;/font&gt;&lt;/div&gt;" id="wIxCeKww_eRo2Onf7-u2-9"><mxCell style="rounded=1;whiteSpace=wrap;html=1;labelBackgroundColor=none;fillColor=#8C8496;fontColor=#ffffff;align=center;arcSize=10;strokeColor=#736782;metaEdit=1;resizable=0;points=[[0.25,0,0],[0.5,0,0],[0.75,0,0],[1,0.25,0],[1,0.5,0],[1,0.75,0],[0.75,1,0],[0.5,1,0],[0.25,1,0],[0,0.75,0],[0,0.5,0],[0,0.25,0]];shadow=0;labelBorderColor=none;comic=0;sketch=0;" parent="1" vertex="1"><mxGeometry x="250" y="130" width="240" height="120" as="geometry"/></mxCell></object><object placeholders="1" c4Name="E-mail System" c4Type="Software System" c4Description="External emailing service provider" label="&lt;font style=&quot;font-size: 16px&quot;&gt;&lt;b&gt;%c4Name%&lt;/b&gt;&lt;/font&gt;&lt;div&gt;[%c4Type%]&lt;/div&gt;&lt;br&gt;&lt;div&gt;&lt;font style=&quot;font-size: 11px&quot;&gt;&lt;font color=&quot;#cccccc&quot;&gt;%c4Description%&lt;/font&gt;&lt;/div&gt;" id="wIxCeKww_eRo2Onf7-u2-10"><mxCell style="rounded=1;whiteSpace=wrap;html=1;labelBackgroundColor=none;fillColor=#8C8496;fontColor=#ffffff;align=center;arcSize=10;strokeColor=#736782;metaEdit=1;resizable=0;points=[[0.25,0,0],[0.5,0,0],[0.75,0,0],[1,0.25,0],[1,0.5,0],[1,0.75,0],[0.75,1,0],[0.5,1,0],[0.25,1,0],[0,0.75,0],[0,0.5,0],[0,0.25,0]];shadow=0;labelBorderColor=none;comic=0;sketch=0;" parent="1" vertex="1"><mxGeometry x="780" y="-110" width="240" height="120" as="geometry"/></mxCell></object><object placeholders="1" c4Type="Relationship" c4Description="Explores map and surroundings,&#10;finds and saves POIs,&#10;Browses information about POIs using" label="&lt;div style=&quot;text-align: left&quot;&gt;&lt;div style=&quot;text-align: center&quot;&gt;&lt;b&gt;%c4Description%&lt;/b&gt;&lt;/div&gt;&lt;/div&gt;" id="wIxCeKww_eRo2Onf7-u2-11"><mxCell style="endArrow=blockThin;html=1;fontSize=10;fontColor=#404040;strokeWidth=1;endFill=1;strokeColor=#828282;elbow=vertical;metaEdit=1;endSize=14;startSize=14;jumpStyle=arc;jumpSize=16;rounded=0;edgeStyle=orthogonalEdgeStyle;exitX=0.5;exitY=1;exitDx=0;exitDy=0;exitPerimeter=0;labelBackgroundColor=#FFFFFF;" parent="1" source="wIxCeKww_eRo2Onf7-u2-1" edge="1"><mxGeometry width="240" relative="1" as="geometry"><mxPoint x="430" y="80" as="sourcePoint"/><mxPoint x="498" y="-110" as="targetPoint"/></mxGeometry></mxCell></object><object placeholders="1" c4Type="Relationship" c4Description="Send email using" label="&lt;div style=&quot;text-align: left&quot;&gt;&lt;div style=&quot;text-align: center&quot;&gt;&lt;b&gt;%c4Description%&lt;/b&gt;&lt;/div&gt;" id="wIxCeKww_eRo2Onf7-u2-13"><mxCell style="endArrow=blockThin;html=1;fontSize=10;fontColor=#404040;strokeWidth=1;endFill=1;strokeColor=#828282;elbow=vertical;metaEdit=1;endSize=14;startSize=14;jumpStyle=arc;jumpSize=16;rounded=0;edgeStyle=orthogonalEdgeStyle;labelBackgroundColor=#FFFFFF;sketch=0;fillColor=#F45B69;curved=0;exitX=1;exitY=0.5;exitDx=0;exitDy=0;exitPerimeter=0;" parent="1" source="wIxCeKww_eRo2Onf7-u2-6" edge="1"><mxGeometry width="240" relative="1" as="geometry"><mxPoint x="670" y="39.71" as="sourcePoint"/><mxPoint x="780" y="-50" as="targetPoint"/></mxGeometry></mxCell></object><object placeholders="1" c4Type="Relationship" c4Description="Sends e-mail to" label="&lt;div style=&quot;text-align: left&quot;&gt;&lt;div style=&quot;text-align: center&quot;&gt;&lt;b&gt;%c4Description%&lt;/b&gt;&lt;/div&gt;" id="wIxCeKww_eRo2Onf7-u2-16"><mxCell style="endArrow=blockThin;html=1;fontSize=10;fontColor=#404040;strokeWidth=1;endFill=1;strokeColor=#828282;elbow=vertical;metaEdit=1;endSize=14;startSize=14;jumpStyle=arc;jumpSize=16;rounded=0;labelBackgroundColor=#FFFFFF;sketch=0;fontFamily=Helvetica;fillColor=#F45B69;shape=connector;entryX=1;entryY=0.75;entryDx=0;entryDy=0;entryPerimeter=0;exitX=0.5;exitY=0;exitDx=0;exitDy=0;exitPerimeter=0;" parent="1" source="wIxCeKww_eRo2Onf7-u2-10" target="wIxCeKww_eRo2Onf7-u2-1" edge="1"><mxGeometry width="240" relative="1" as="geometry"><mxPoint x="770" y="-300" as="sourcePoint"/><mxPoint x="1010" y="-300" as="targetPoint"/></mxGeometry></mxCell></object><object placeholders="1" c4Type="Relationship" c4Description="Gets mapping data using" label="&lt;div style=&quot;text-align: left&quot;&gt;&lt;div style=&quot;text-align: center&quot;&gt;&lt;b&gt;%c4Description%&lt;/b&gt;&lt;/div&gt;" id="wIxCeKww_eRo2Onf7-u2-18"><mxCell style="endArrow=blockThin;html=1;fontSize=10;fontColor=#404040;strokeWidth=1;endFill=1;strokeColor=#828282;elbow=vertical;metaEdit=1;endSize=14;startSize=14;jumpStyle=arc;jumpSize=16;rounded=0;edgeStyle=orthogonalEdgeStyle;labelBackgroundColor=#FFFFFF;sketch=0;fontFamily=Helvetica;fillColor=#F45B69;shape=connector;exitX=0.25;exitY=1;exitDx=0;exitDy=0;exitPerimeter=0;" parent="1" source="wIxCeKww_eRo2Onf7-u2-6" target="wIxCeKww_eRo2Onf7-u2-9" edge="1"><mxGeometry width="240" relative="1" as="geometry"><mxPoint x="250" y="40" as="sourcePoint"/><mxPoint x="490" y="40" as="targetPoint"/></mxGeometry></mxCell></object><object placeholders="1" c4Type="Relationship" c4Description="Gets GeoSpatial information using" label="&lt;div style=&quot;text-align: left&quot;&gt;&lt;div style=&quot;text-align: center&quot;&gt;&lt;b&gt;%c4Description%&lt;/b&gt;&lt;/div&gt;" id="wIxCeKww_eRo2Onf7-u2-19"><mxCell style="endArrow=blockThin;html=1;fontSize=10;fontColor=#404040;strokeWidth=1;endFill=1;strokeColor=#828282;elbow=vertical;metaEdit=1;endSize=14;startSize=14;jumpStyle=arc;jumpSize=16;rounded=0;edgeStyle=orthogonalEdgeStyle;labelBackgroundColor=#FFFFFF;sketch=0;fontFamily=Helvetica;fillColor=#F45B69;shape=connector;exitX=0.75;exitY=1;exitDx=0;exitDy=0;exitPerimeter=0;entryX=0.488;entryY=-0.032;entryDx=0;entryDy=0;entryPerimeter=0;" parent="1" source="wIxCeKww_eRo2Onf7-u2-6" target="wIxCeKww_eRo2Onf7-u2-8" edge="1"><mxGeometry width="240" relative="1" as="geometry"><mxPoint x="620" y="80" as="sourcePoint"/><mxPoint x="860" y="80" as="targetPoint"/></mxGeometry></mxCell></object></root></mxGraphModel></diagram></mxfile>